<?xml version="1.0" encoding="UTF-8" standalone="no"?>
<!DOCTYPE svg PUBLIC "-//W3C//DTD SVG 1.1//EN"
 "http://www.w3.org/Graphics/SVG/1.1/DTD/svg11.dtd">
<!-- Generated by graphviz version 8.1.0 (20230707.0739)
 -->
<!-- Pages: 1 -->
<svg width="3070pt" height="133pt"
 viewBox="0.00 0.00 3069.52 132.50" xmlns="http://www.w3.org/2000/svg" xmlns:xlink="http://www.w3.org/1999/xlink">
<g id="graph0" class="graph" transform="scale(1 1) rotate(0) translate(4 128.5)">
<polygon fill="white" stroke="none" points="-4,4 -4,-128.5 3065.52,-128.5 3065.52,4 -4,4"/>
<!-- idBottle1 -->
<g id="node1" class="node">
<title>idBottle1</title>
<ellipse fill="none" stroke="black" cx="1682.46" cy="-106.5" rx="45.21" ry="18"/>
<text text-anchor="middle" x="1682.46" y="-101.45" font-family="Times,serif" font-size="14.00">idBottle1</text>
</g>
<!-- brown -->
<g id="node2" class="node">
<title>brown</title>
<ellipse fill="none" stroke="black" cx="34.46" cy="-18" rx="34.46" ry="18"/>
<text text-anchor="middle" x="34.46" y="-12.95" font-family="Times,serif" font-size="14.00">brown</text>
</g>
<!-- idBottle1&#45;&gt;brown -->
<g id="edge1" class="edge">
<title>idBottle1&#45;&gt;brown</title>
<path fill="none" stroke="black" d="M1636.96,-105.65C1382.31,-106.35 142.81,-107.8 71.71,-70.5 61.23,-65 52.99,-55.07 46.96,-45.39"/>
<polygon fill="black" stroke="black" points="49.61,-43.96 41.66,-36.96 43.51,-47.39 49.61,-43.96"/>
<text text-anchor="middle" x="137.34" y="-57.2" font-family="Times,serif" font-size="14.00">idBottle1_prop_idColor</text>
</g>
<!-- broken bottle shard -->
<g id="node3" class="node">
<title>broken bottle shard</title>
<ellipse fill="none" stroke="black" cx="187.46" cy="-18" rx="82.57" ry="18"/>
<text text-anchor="middle" x="187.46" y="-12.95" font-family="Times,serif" font-size="14.00">broken bottle shard</text>
</g>
<!-- idBottle1&#45;&gt;broken bottle shard -->
<g id="edge2" class="edge">
<title>idBottle1&#45;&gt;broken bottle shard</title>
<path fill="none" stroke="black" d="M1636.91,-105.59C1396.62,-105.92 284.79,-105.56 221.46,-70.5 211.65,-65.07 204.18,-55.47 198.78,-46.02"/>
<polygon fill="black" stroke="black" points="201.54,-44.73 193.88,-37.41 195.3,-47.91 201.54,-44.73"/>
<text text-anchor="middle" x="308.46" y="-57.2" font-family="Times,serif" font-size="14.00">idBottle1_prop_idDisplayName</text>
</g>
<!-- broken -->
<g id="node4" class="node">
<title>broken</title>
<ellipse fill="none" stroke="black" cx="384.46" cy="-18" rx="36.51" ry="18"/>
<text text-anchor="middle" x="384.46" y="-12.95" font-family="Times,serif" font-size="14.00">broken</text>
</g>
<!-- idBottle1&#45;&gt;broken -->
<g id="edge3" class="edge">
<title>idBottle1&#45;&gt;broken</title>
<path fill="none" stroke="black" d="M1636.9,-105.47C1416.41,-105.17 468.59,-102.06 414.96,-70.5 405.62,-65 398.83,-55.44 394.06,-46.03"/>
<polygon fill="black" stroke="black" points="396.91,-44.81 389.65,-37.09 390.51,-47.65 396.91,-44.81"/>
<text text-anchor="middle" x="488.21" y="-57.2" font-family="Times,serif" font-size="14.00">idBottle1_prop_idIntegrity</text>
</g>
<!-- sharp -->
<g id="node5" class="node">
<title>sharp</title>
<ellipse fill="none" stroke="black" cx="553.46" cy="-18" rx="30.88" ry="18"/>
<text text-anchor="middle" x="553.46" y="-12.95" font-family="Times,serif" font-size="14.00">sharp</text>
</g>
<!-- idBottle1&#45;&gt;sharp -->
<g id="edge4" class="edge">
<title>idBottle1&#45;&gt;sharp</title>
<path fill="none" stroke="black" d="M1637.14,-105.37C1434.97,-104.6 623.51,-99.71 578.46,-70.5 569.92,-64.96 564.21,-55.61 560.43,-46.38"/>
<polygon fill="black" stroke="black" points="563.51,-45.55 556.95,-37.22 556.88,-47.82 563.51,-45.55"/>
<text text-anchor="middle" x="656.46" y="-57.2" font-family="Times,serif" font-size="14.00">idBottle1_prop_idDescriptor</text>
</g>
<!-- shiny -->
<g id="node6" class="node">
<title>shiny</title>
<ellipse fill="none" stroke="black" cx="726.46" cy="-18" rx="30.88" ry="18"/>
<text text-anchor="middle" x="726.46" y="-12.95" font-family="Times,serif" font-size="14.00">shiny</text>
</g>
<!-- idBottle1&#45;&gt;shiny -->
<g id="edge5" class="edge">
<title>idBottle1&#45;&gt;shiny</title>
<path fill="none" stroke="black" d="M1636.89,-105.06C1455.22,-103.12 790.58,-94.43 752.96,-70.5 744.27,-64.97 738.29,-55.62 734.25,-46.39"/>
<polygon fill="black" stroke="black" points="737.23,-45.38 730.46,-37.23 730.67,-47.83 737.23,-45.38"/>
<text text-anchor="middle" x="838.21" y="-57.2" font-family="Times,serif" font-size="14.00">idBottle1_prop_idDescriptor_1</text>
</g>
<!-- This broken bottle shard feels sharp. -->
<g id="node7" class="node">
<title>This broken bottle shard feels sharp.</title>
<ellipse fill="none" stroke="black" cx="921.46" cy="-18" rx="146.55" ry="18"/>
<text text-anchor="middle" x="921.46" y="-12.95" font-family="Times,serif" font-size="14.00">This broken bottle shard feels sharp.</text>
</g>
<!-- idBottle1&#45;&gt;This broken bottle shard feels sharp. -->
<g id="edge6" class="edge">
<title>idBottle1&#45;&gt;This broken bottle shard feels sharp.</title>
<path fill="none" stroke="black" d="M1637.21,-104.81C1479.87,-102.21 964.64,-92.1 936.96,-70.5 929.64,-64.78 925.66,-55.73 923.54,-46.79"/>
<polygon fill="black" stroke="black" points="926.87,-46.47 921.78,-37.19 919.97,-47.62 926.87,-46.47"/>
<text text-anchor="middle" x="1023.71" y="-57.2" font-family="Times,serif" font-size="14.00">idBottle1_prop_idExamineText</text>
</g>
<!-- idGlass -->
<g id="node8" class="node">
<title>idGlass</title>
<ellipse fill="none" stroke="black" cx="1124.46" cy="-18" rx="38.56" ry="18"/>
<text text-anchor="middle" x="1124.46" y="-12.95" font-family="Times,serif" font-size="14.00">idGlass</text>
</g>
<!-- idBottle1&#45;&gt;idGlass -->
<g id="edge7" class="edge">
<title>idBottle1&#45;&gt;idGlass</title>
<path fill="none" stroke="black" d="M1637.51,-104.37C1507.04,-100.88 1136.4,-89.32 1118.71,-70.5 1112.73,-64.14 1112.11,-55.2 1113.65,-46.55"/>
<polygon fill="black" stroke="black" points="1117.28,-47.54 1116.5,-36.97 1110.52,-45.71 1117.28,-47.54"/>
<text text-anchor="middle" x="1215.84" y="-57.2" font-family="Times,serif" font-size="14.00">idBottle1_prop_idCompoundName</text>
</g>
<!-- idBottle -->
<g id="node9" class="node">
<title>idBottle</title>
<ellipse fill="none" stroke="black" cx="1221.46" cy="-18" rx="40.6" ry="18"/>
<text text-anchor="middle" x="1221.46" y="-12.95" font-family="Times,serif" font-size="14.00">idBottle</text>
</g>
<!-- idBottle1&#45;&gt;idBottle -->
<g id="edge8" class="edge">
<title>idBottle1&#45;&gt;idBottle</title>
<path fill="none" stroke="black" d="M1637.12,-104.37C1555.52,-101.78 1387.48,-93.71 1334.21,-70.5 1324.04,-66.07 1324.99,-59.7 1315.46,-54 1310.54,-51.05 1285.76,-41.86 1262.89,-33.64"/>
<polygon fill="black" stroke="black" points="1264.18,-30.03 1253.59,-29.95 1261.82,-36.62 1264.18,-30.03"/>
<text text-anchor="middle" x="1437.59" y="-57.2" font-family="Times,serif" font-size="14.00">idBottle1_prop_idCompoundName_1</text>
</g>
<!-- idRockPile1 -->
<g id="node10" class="node">
<title>idRockPile1</title>
<ellipse fill="none" stroke="black" cx="1336.46" cy="-18" rx="56.47" ry="18"/>
<text text-anchor="middle" x="1336.46" y="-12.95" font-family="Times,serif" font-size="14.00">idRockPile1</text>
</g>
<!-- idBottle1&#45;&gt;idRockPile1 -->
<g id="edge9" class="edge">
<title>idBottle1&#45;&gt;idRockPile1</title>
<path fill="none" stroke="black" d="M1641.81,-98.18C1617.91,-92.78 1587.68,-83.98 1563.21,-70.5 1553.49,-65.14 1554.58,-58.56 1544.46,-54 1486.06,-27.68 1464.36,-48.13 1401.46,-36 1397.15,-35.17 1392.69,-34.21 1388.23,-33.19"/>
<polygon fill="black" stroke="black" points="1389.43,-29.63 1378.89,-30.7 1387.79,-36.44 1389.43,-29.63"/>
<text text-anchor="middle" x="1581.09" y="-57.2" font-family="Times,serif" font-size="14.00">isNear</text>
</g>
<!-- idRockyArea1 -->
<g id="node11" class="node">
<title>idRockyArea1</title>
<ellipse fill="none" stroke="black" cx="1475.46" cy="-18" rx="64.66" ry="18"/>
<text text-anchor="middle" x="1475.46" y="-12.95" font-family="Times,serif" font-size="14.00">idRockyArea1</text>
</g>
<!-- idBottle1&#45;&gt;idRockyArea1 -->
<g id="edge10" class="edge">
<title>idBottle1&#45;&gt;idRockyArea1</title>
<path fill="none" stroke="black" d="M1655.51,-91.64C1644.56,-85.62 1631.97,-78.19 1621.21,-70.5 1612.18,-64.05 1612.23,-59.28 1602.46,-54 1590.43,-47.5 1561.91,-39.43 1534.94,-32.68"/>
<polygon fill="black" stroke="black" points="1535.87,-29.06 1525.33,-30.07 1534.2,-35.86 1535.87,-29.06"/>
<text text-anchor="middle" x="1639.09" y="-57.2" font-family="Times,serif" font-size="14.00">isNear</text>
</g>
<!-- idPebble1 -->
<g id="node12" class="node">
<title>idPebble1</title>
<ellipse fill="none" stroke="black" cx="1605.46" cy="-18" rx="47.77" ry="18"/>
<text text-anchor="middle" x="1605.46" y="-12.95" font-family="Times,serif" font-size="14.00">idPebble1</text>
</g>
<!-- idBottle1&#45;&gt;idPebble1 -->
<g id="edge11" class="edge">
<title>idBottle1&#45;&gt;idPebble1</title>
<path fill="none" stroke="black" d="M1677.98,-88.33C1674.53,-77.58 1668.89,-63.93 1660.46,-54 1655.48,-48.13 1649.25,-42.9 1642.8,-38.4"/>
<polygon fill="black" stroke="black" points="1645.27,-35.18 1634.97,-32.71 1641.48,-41.06 1645.27,-35.18"/>
<text text-anchor="middle" x="1688.09" y="-57.2" font-family="Times,serif" font-size="14.00">isNear</text>
</g>
<!-- idGlowingArea1 -->
<g id="node13" class="node">
<title>idGlowingArea1</title>
<ellipse fill="none" stroke="black" cx="1744.46" cy="-18" rx="72.85" ry="18"/>
<text text-anchor="middle" x="1744.46" y="-12.95" font-family="Times,serif" font-size="14.00">idGlowingArea1</text>
</g>
<!-- idBottle1&#45;&gt;idGlowingArea1 -->
<g id="edge12" class="edge">
<title>idBottle1&#45;&gt;idGlowingArea1</title>
<path fill="none" stroke="black" d="M1702.69,-90.19C1709.27,-84.52 1716.21,-77.71 1721.46,-70.5 1726.81,-63.15 1731.31,-54.37 1734.86,-46.15"/>
<polygon fill="black" stroke="black" points="1738.38,-47.77 1738.86,-37.19 1731.89,-45.17 1738.38,-47.77"/>
<text text-anchor="middle" x="1756.96" y="-57.2" font-family="Times,serif" font-size="14.00">isWestOf</text>
</g>
<!-- idGlowingGrass1 -->
<g id="node14" class="node">
<title>idGlowingGrass1</title>
<ellipse fill="none" stroke="black" cx="1911.46" cy="-18" rx="75.92" ry="18"/>
<text text-anchor="middle" x="1911.46" y="-12.95" font-family="Times,serif" font-size="14.00">idGlowingGrass1</text>
</g>
<!-- idBottle1&#45;&gt;idGlowingGrass1 -->
<g id="edge13" class="edge">
<title>idBottle1&#45;&gt;idGlowingGrass1</title>
<path fill="none" stroke="black" d="M1716.86,-94.56C1737.21,-87.92 1763.44,-79.1 1786.46,-70.5 1813.08,-60.55 1842.48,-48.49 1866.08,-38.54"/>
<polygon fill="black" stroke="black" points="1867.3,-41.4 1875.15,-34.28 1864.57,-34.96 1867.3,-41.4"/>
<text text-anchor="middle" x="1853.96" y="-57.2" font-family="Times,serif" font-size="14.00">isWestOf</text>
</g>
<!-- idCave1 -->
<g id="node15" class="node">
<title>idCave1</title>
<ellipse fill="none" stroke="black" cx="2047.46" cy="-18" rx="41.63" ry="18"/>
<text text-anchor="middle" x="2047.46" y="-12.95" font-family="Times,serif" font-size="14.00">idCave1</text>
</g>
<!-- idBottle1&#45;&gt;idCave1 -->
<g id="edge14" class="edge">
<title>idBottle1&#45;&gt;idCave1</title>
<path fill="none" stroke="black" d="M1724.73,-99.7C1765.62,-93.72 1829.2,-83.46 1883.46,-70.5 1934.54,-58.31 1946.44,-51.97 1996.46,-36 1999.24,-35.11 2002.1,-34.19 2004.98,-33.25"/>
<polygon fill="black" stroke="black" points="2005.99,-36.27 2014.4,-29.83 2003.81,-29.62 2005.99,-36.27"/>
<text text-anchor="middle" x="1967.96" y="-57.2" font-family="Times,serif" font-size="14.00">isWestOf</text>
</g>
<!-- idClearing1 -->
<g id="node16" class="node">
<title>idClearing1</title>
<ellipse fill="none" stroke="black" cx="2161.46" cy="-18" rx="54.42" ry="18"/>
<text text-anchor="middle" x="2161.46" y="-12.95" font-family="Times,serif" font-size="14.00">idClearing1</text>
</g>
<!-- idBottle1&#45;&gt;idClearing1 -->
<g id="edge15" class="edge">
<title>idBottle1&#45;&gt;idClearing1</title>
<path fill="none" stroke="black" d="M1727.23,-103.26C1788.7,-99.56 1902.43,-90.5 1997.46,-70.5 2038.44,-61.87 2083.76,-47.23 2116.36,-35.76"/>
<polygon fill="black" stroke="black" points="2117.23,-38.81 2125.48,-32.16 2114.88,-32.22 2117.23,-38.81"/>
<text text-anchor="middle" x="2082.96" y="-57.2" font-family="Times,serif" font-size="14.00">isWestOf</text>
</g>
<!-- idBranch1 -->
<g id="node17" class="node">
<title>idBranch1</title>
<ellipse fill="none" stroke="black" cx="2283.46" cy="-18" rx="49.3" ry="18"/>
<text text-anchor="middle" x="2283.46" y="-12.95" font-family="Times,serif" font-size="14.00">idBranch1</text>
</g>
<!-- idBottle1&#45;&gt;idBranch1 -->
<g id="edge16" class="edge">
<title>idBottle1&#45;&gt;idBranch1</title>
<path fill="none" stroke="black" d="M1727.76,-104.95C1806.61,-103.29 1973.92,-96.7 2112.46,-70.5 2156.5,-62.17 2205.32,-46.83 2239.49,-35.05"/>
<polygon fill="black" stroke="black" points="2240.31,-38.12 2248.6,-31.52 2238,-31.51 2240.31,-38.12"/>
<text text-anchor="middle" x="2204.96" y="-57.2" font-family="Times,serif" font-size="14.00">isWestOf</text>
</g>
<!-- idGrass1 -->
<g id="node18" class="node">
<title>idGrass1</title>
<ellipse fill="none" stroke="black" cx="2394.46" cy="-18" rx="43.67" ry="18"/>
<text text-anchor="middle" x="2394.46" y="-12.95" font-family="Times,serif" font-size="14.00">idGrass1</text>
</g>
<!-- idBottle1&#45;&gt;idGrass1 -->
<g id="edge17" class="edge">
<title>idBottle1&#45;&gt;idGrass1</title>
<path fill="none" stroke="black" d="M1727.53,-104.08C1841.24,-100.28 2137.64,-88.86 2234.46,-70.5 2276.06,-62.61 2321.91,-47.12 2353.82,-35.18"/>
<polygon fill="black" stroke="black" points="2354.97,-38.11 2363.08,-31.28 2352.49,-31.56 2354.97,-38.11"/>
<text text-anchor="middle" x="2322.96" y="-57.2" font-family="Times,serif" font-size="14.00">isWestOf</text>
</g>
<!-- idPlayer -->
<g id="node19" class="node">
<title>idPlayer</title>
<ellipse fill="none" stroke="black" cx="2497.46" cy="-18" rx="41.63" ry="18"/>
<text text-anchor="middle" x="2497.46" y="-12.95" font-family="Times,serif" font-size="14.00">idPlayer</text>
</g>
<!-- idBottle1&#45;&gt;idPlayer -->
<g id="edge18" class="edge">
<title>idBottle1&#45;&gt;idPlayer</title>
<path fill="none" stroke="black" d="M1727.97,-104.83C1858.51,-102.64 2232.52,-94.41 2352.46,-70.5 2389.91,-63.04 2430.75,-47.85 2459.51,-35.89"/>
<polygon fill="black" stroke="black" points="2460.69,-38.77 2468.54,-31.65 2457.96,-32.33 2460.69,-38.77"/>
<text text-anchor="middle" x="2434.96" y="-57.2" font-family="Times,serif" font-size="14.00">isWestOf</text>
</g>
<!-- idPlayerBackside -->
<g id="node20" class="node">
<title>idPlayerBackside</title>
<ellipse fill="none" stroke="black" cx="2632.46" cy="-18" rx="75.41" ry="18"/>
<text text-anchor="middle" x="2632.46" y="-12.95" font-family="Times,serif" font-size="14.00">idPlayerBackside</text>
</g>
<!-- idBottle1&#45;&gt;idPlayerBackside -->
<g id="edge19" class="edge">
<title>idBottle1&#45;&gt;idPlayerBackside</title>
<path fill="none" stroke="black" d="M1727.89,-104.97C1872.57,-103.05 2321.42,-95.21 2464.46,-70.5 2505.56,-63.4 2550.67,-49.2 2583.79,-37.5"/>
<polygon fill="black" stroke="black" points="2584.87,-40.47 2593.1,-33.8 2582.51,-33.88 2584.87,-40.47"/>
<text text-anchor="middle" x="2555.96" y="-57.2" font-family="Times,serif" font-size="14.00">isWestOf</text>
</g>
<!-- idPlayerLeftHand -->
<g id="node21" class="node">
<title>idPlayerLeftHand</title>
<ellipse fill="none" stroke="black" cx="2802.46" cy="-18" rx="76.94" ry="18"/>
<text text-anchor="middle" x="2802.46" y="-12.95" font-family="Times,serif" font-size="14.00">idPlayerLeftHand</text>
</g>
<!-- idBottle1&#45;&gt;idPlayerLeftHand -->
<g id="edge20" class="edge">
<title>idBottle1&#45;&gt;idPlayerLeftHand</title>
<path fill="none" stroke="black" d="M1727.75,-104.91C1886.47,-102.65 2417,-93.53 2585.46,-70.5 2640.75,-62.94 2702.56,-47.57 2746.03,-35.58"/>
<polygon fill="black" stroke="black" points="2746.7,-38.75 2755.39,-32.69 2744.82,-32.01 2746.7,-38.75"/>
<text text-anchor="middle" x="2695.96" y="-57.2" font-family="Times,serif" font-size="14.00">isWestOf</text>
</g>
<!-- idPlayerRightHand -->
<g id="node22" class="node">
<title>idPlayerRightHand</title>
<ellipse fill="none" stroke="black" cx="2979.46" cy="-18" rx="82.06" ry="18"/>
<text text-anchor="middle" x="2979.46" y="-12.95" font-family="Times,serif" font-size="14.00">idPlayerRightHand</text>
</g>
<!-- idBottle1&#45;&gt;idPlayerRightHand -->
<g id="edge21" class="edge">
<title>idBottle1&#45;&gt;idPlayerRightHand</title>
<path fill="none" stroke="black" d="M1727.98,-104.98C1902.36,-102.84 2527.97,-93.67 2725.46,-70.5 2791.38,-62.77 2865.66,-46.85 2916.79,-34.74"/>
<polygon fill="black" stroke="black" points="2917.42,-37.95 2926.33,-32.22 2915.79,-31.14 2917.42,-37.95"/>
<text text-anchor="middle" x="2849.96" y="-57.2" font-family="Times,serif" font-size="14.00">isWestOf</text>
</g>
</g>
</svg>
