<?xml version="1.0" encoding="UTF-8" standalone="no"?>
<!DOCTYPE svg PUBLIC "-//W3C//DTD SVG 1.1//EN"
 "http://www.w3.org/Graphics/SVG/1.1/DTD/svg11.dtd">
<!-- Generated by graphviz version 8.1.0 (20230707.0739)
 -->
<!-- Pages: 1 -->
<svg width="2143pt" height="133pt"
 viewBox="0.00 0.00 2142.93 132.50" xmlns="http://www.w3.org/2000/svg" xmlns:xlink="http://www.w3.org/1999/xlink">
<g id="graph0" class="graph" transform="scale(1 1) rotate(0) translate(4 128.5)">
<polygon fill="white" stroke="none" points="-4,4 -4,-128.5 2138.93,-128.5 2138.93,4 -4,4"/>
<!-- idBranch1 -->
<g id="node1" class="node">
<title>idBranch1</title>
<ellipse fill="none" stroke="black" cx="1222.46" cy="-106.5" rx="49.3" ry="18"/>
<text text-anchor="middle" x="1222.46" y="-101.45" font-family="Times,serif" font-size="14.00">idBranch1</text>
</g>
<!-- idBranch1&#45;&gt;idBranch1 -->
<g id="edge8" class="edge">
<title>idBranch1&#45;&gt;idBranch1</title>
<path fill="none" stroke="black" d="M1266.8,-114.77C1279.74,-114.49 1289.77,-111.73 1289.77,-106.5 1289.77,-102.82 1284.81,-100.37 1277.37,-99.14"/>
<polygon fill="black" stroke="black" points="1278.06,-95.6 1267.8,-98.23 1277.46,-102.57 1278.06,-95.6"/>
<text text-anchor="middle" x="1307.39" y="-101.45" font-family="Times,serif" font-size="14.00">isNear</text>
</g>
<!-- brown -->
<g id="node2" class="node">
<title>brown</title>
<ellipse fill="none" stroke="black" cx="34.46" cy="-18" rx="34.46" ry="18"/>
<text text-anchor="middle" x="34.46" y="-12.95" font-family="Times,serif" font-size="14.00">brown</text>
</g>
<!-- idBranch1&#45;&gt;brown -->
<g id="edge1" class="edge">
<title>idBranch1&#45;&gt;brown</title>
<path fill="none" stroke="black" d="M1173.03,-105.02C975.55,-102.94 249.04,-93.78 148.71,-70.5 119.49,-63.72 88.6,-49.3 66.32,-37.44"/>
<polygon fill="black" stroke="black" points="68.18,-33.93 57.73,-32.21 64.83,-40.07 68.18,-33.93"/>
<text text-anchor="middle" x="217.34" y="-57.2" font-family="Times,serif" font-size="14.00">idBranch1_prop_idColor</text>
</g>
<!-- branch -->
<g id="node3" class="node">
<title>branch</title>
<ellipse fill="none" stroke="black" cx="157.46" cy="-18" rx="36" ry="18"/>
<text text-anchor="middle" x="157.46" y="-12.95" font-family="Times,serif" font-size="14.00">branch</text>
</g>
<!-- idBranch1&#45;&gt;branch -->
<g id="edge2" class="edge">
<title>idBranch1&#45;&gt;branch</title>
<path fill="none" stroke="black" d="M1172.87,-104.81C1050.48,-102.76 724.3,-95.23 453.46,-70.5 341.32,-60.26 311.6,-63.74 202.46,-36 199.84,-35.33 197.16,-34.56 194.49,-33.73"/>
<polygon fill="black" stroke="black" points="195.87,-30.16 185.27,-30.25 193.61,-36.79 195.87,-30.16"/>
<text text-anchor="middle" x="543.46" y="-57.2" font-family="Times,serif" font-size="14.00">idBranch1_prop_idDisplayName</text>
</g>
<!-- This branch is broken, and it is about the same length as your arm. -->
<g id="node4" class="node">
<title>This branch is broken, and it is about the same length as your arm.</title>
<ellipse fill="none" stroke="black" cx="472.46" cy="-18" rx="260.68" ry="18"/>
<text text-anchor="middle" x="472.46" y="-12.95" font-family="Times,serif" font-size="14.00">This branch is broken, and it is about the same length as your arm.</text>
</g>
<!-- idBranch1&#45;&gt;This branch is broken, and it is about the same length as your arm. -->
<g id="edge3" class="edge">
<title>idBranch1&#45;&gt;This branch is broken, and it is about the same length as your arm.</title>
<path fill="none" stroke="black" d="M1173.32,-104.06C1084.47,-101.01 891.36,-92.29 729.96,-70.5 670.7,-62.5 604.56,-49.18 554.16,-38.09"/>
<polygon fill="black" stroke="black" points="555.17,-34.51 544.65,-35.76 553.65,-41.34 555.17,-34.51"/>
<text text-anchor="middle" x="819.71" y="-57.2" font-family="Times,serif" font-size="14.00">idBranch1_prop_idExamineText</text>
</g>
<!-- idClearing1 -->
<g id="node5" class="node">
<title>idClearing1</title>
<ellipse fill="none" stroke="black" cx="805.46" cy="-18" rx="54.42" ry="18"/>
<text text-anchor="middle" x="805.46" y="-12.95" font-family="Times,serif" font-size="14.00">idClearing1</text>
</g>
<!-- idBranch1&#45;&gt;idClearing1 -->
<g id="edge4" class="edge">
<title>idBranch1&#45;&gt;idClearing1</title>
<path fill="none" stroke="black" d="M1175.01,-101.16C1124.38,-95.99 1042.01,-86.05 972.21,-70.5 930.85,-61.28 884.91,-46.76 851.74,-35.49"/>
<polygon fill="black" stroke="black" points="853.04,-31.89 842.44,-31.95 850.76,-38.51 853.04,-31.89"/>
<text text-anchor="middle" x="990.09" y="-57.2" font-family="Times,serif" font-size="14.00">isNear</text>
</g>
<!-- idTheTrees1 -->
<g id="node6" class="node">
<title>idTheTrees1</title>
<ellipse fill="none" stroke="black" cx="935.46" cy="-18" rx="57.49" ry="18"/>
<text text-anchor="middle" x="935.46" y="-12.95" font-family="Times,serif" font-size="14.00">idTheTrees1</text>
</g>
<!-- idBranch1&#45;&gt;idTheTrees1 -->
<g id="edge5" class="edge">
<title>idBranch1&#45;&gt;idTheTrees1</title>
<path fill="none" stroke="black" d="M1177.54,-98.72C1143.28,-92.94 1095.16,-83.49 1054.21,-70.5 1026.97,-61.86 997.49,-49.09 974.71,-38.43"/>
<polygon fill="black" stroke="black" points="976.61,-34.98 966.07,-33.86 973.61,-41.31 976.61,-34.98"/>
<text text-anchor="middle" x="1082.59" y="-57.2" font-family="Times,serif" font-size="14.00">isInsideOf</text>
</g>
<!-- idPlayer -->
<g id="node7" class="node">
<title>idPlayer</title>
<ellipse fill="none" stroke="black" cx="1052.46" cy="-18" rx="41.63" ry="18"/>
<text text-anchor="middle" x="1052.46" y="-12.95" font-family="Times,serif" font-size="14.00">idPlayer</text>
</g>
<!-- idBranch1&#45;&gt;idPlayer -->
<g id="edge6" class="edge">
<title>idBranch1&#45;&gt;idPlayer</title>
<path fill="none" stroke="black" d="M1191.31,-92.34C1176.84,-86.03 1159.5,-78.19 1144.21,-70.5 1124.38,-60.53 1102.71,-48.42 1085.41,-38.45"/>
<polygon fill="black" stroke="black" points="1087.69,-35.15 1077.29,-33.16 1084.18,-41.2 1087.69,-35.15"/>
<text text-anchor="middle" x="1162.09" y="-57.2" font-family="Times,serif" font-size="14.00">isNear</text>
</g>
<!-- idGrass1 -->
<g id="node8" class="node">
<title>idGrass1</title>
<ellipse fill="none" stroke="black" cx="1155.46" cy="-18" rx="43.67" ry="18"/>
<text text-anchor="middle" x="1155.46" y="-12.95" font-family="Times,serif" font-size="14.00">idGrass1</text>
</g>
<!-- idBranch1&#45;&gt;idGrass1 -->
<g id="edge7" class="edge">
<title>idBranch1&#45;&gt;idGrass1</title>
<path fill="none" stroke="black" d="M1209.54,-88.82C1199.72,-76.14 1186.04,-58.47 1174.89,-44.09"/>
<polygon fill="black" stroke="black" points="1177.23,-42.39 1168.34,-36.63 1171.7,-46.68 1177.23,-42.39"/>
<text text-anchor="middle" x="1213.09" y="-57.2" font-family="Times,serif" font-size="14.00">isNear</text>
</g>
<!-- idGlowingArea1 -->
<g id="node9" class="node">
<title>idGlowingArea1</title>
<ellipse fill="none" stroke="black" cx="1290.46" cy="-18" rx="72.85" ry="18"/>
<text text-anchor="middle" x="1290.46" y="-12.95" font-family="Times,serif" font-size="14.00">idGlowingArea1</text>
</g>
<!-- idBranch1&#45;&gt;idGlowingArea1 -->
<g id="edge9" class="edge">
<title>idBranch1&#45;&gt;idGlowingArea1</title>
<path fill="none" stroke="black" d="M1235.57,-88.82C1245.48,-76.22 1259.25,-58.7 1270.52,-44.36"/>
<polygon fill="black" stroke="black" points="1273.73,-46.95 1277.16,-36.92 1268.23,-42.62 1273.73,-46.95"/>
<text text-anchor="middle" x="1290.84" y="-57.2" font-family="Times,serif" font-size="14.00">isNorthOf</text>
</g>
<!-- idGlowingGrass1 -->
<g id="node10" class="node">
<title>idGlowingGrass1</title>
<ellipse fill="none" stroke="black" cx="1457.46" cy="-18" rx="75.92" ry="18"/>
<text text-anchor="middle" x="1457.46" y="-12.95" font-family="Times,serif" font-size="14.00">idGlowingGrass1</text>
</g>
<!-- idBranch1&#45;&gt;idGlowingGrass1 -->
<g id="edge10" class="edge">
<title>idBranch1&#45;&gt;idGlowingGrass1</title>
<path fill="none" stroke="black" d="M1257.26,-93.59C1276.52,-86.93 1300.87,-78.4 1322.46,-70.5 1351.24,-59.98 1383.3,-47.77 1408.95,-37.88"/>
<polygon fill="black" stroke="black" points="1410.09,-40.8 1418.16,-33.94 1407.57,-34.27 1410.09,-40.8"/>
<text text-anchor="middle" x="1390.84" y="-57.2" font-family="Times,serif" font-size="14.00">isNorthOf</text>
</g>
<!-- idCave1 -->
<g id="node11" class="node">
<title>idCave1</title>
<ellipse fill="none" stroke="black" cx="1593.46" cy="-18" rx="41.63" ry="18"/>
<text text-anchor="middle" x="1593.46" y="-12.95" font-family="Times,serif" font-size="14.00">idCave1</text>
</g>
<!-- idBranch1&#45;&gt;idCave1 -->
<g id="edge11" class="edge">
<title>idBranch1&#45;&gt;idCave1</title>
<path fill="none" stroke="black" d="M1267.62,-99.01C1308.33,-92.82 1369.74,-82.66 1422.46,-70.5 1476.54,-58.03 1489.46,-52.44 1542.46,-36 1545.25,-35.14 1548.12,-34.23 1551,-33.3"/>
<polygon fill="black" stroke="black" points="1552,-36.33 1560.43,-29.91 1549.83,-29.68 1552,-36.33"/>
<text text-anchor="middle" x="1512.84" y="-57.2" font-family="Times,serif" font-size="14.00">isSouthOf</text>
</g>
<!-- idRockyArea1 -->
<g id="node12" class="node">
<title>idRockyArea1</title>
<ellipse fill="none" stroke="black" cx="1717.46" cy="-18" rx="64.66" ry="18"/>
<text text-anchor="middle" x="1717.46" y="-12.95" font-family="Times,serif" font-size="14.00">idRockyArea1</text>
</g>
<!-- idBranch1&#45;&gt;idRockyArea1 -->
<g id="edge12" class="edge">
<title>idBranch1&#45;&gt;idRockyArea1</title>
<path fill="none" stroke="black" d="M1271.16,-102.96C1334.59,-99.02 1448.68,-89.8 1544.46,-70.5 1586.92,-61.95 1633.95,-47.62 1668.25,-36.24"/>
<polygon fill="black" stroke="black" points="1669.1,-39.32 1677.47,-32.82 1666.87,-32.68 1669.1,-39.32"/>
<text text-anchor="middle" x="1630.71" y="-57.2" font-family="Times,serif" font-size="14.00">isEastOf</text>
</g>
<!-- idBottle1 -->
<g id="node13" class="node">
<title>idBottle1</title>
<ellipse fill="none" stroke="black" cx="1845.46" cy="-18" rx="45.21" ry="18"/>
<text text-anchor="middle" x="1845.46" y="-12.95" font-family="Times,serif" font-size="14.00">idBottle1</text>
</g>
<!-- idBranch1&#45;&gt;idBottle1 -->
<g id="edge13" class="edge">
<title>idBranch1&#45;&gt;idBottle1</title>
<path fill="none" stroke="black" d="M1271.73,-104.29C1352.72,-101.68 1518.85,-93.74 1657.46,-70.5 1707.8,-62.06 1764.08,-45.69 1801.82,-33.66"/>
<polygon fill="black" stroke="black" points="1802.52,-36.79 1810.96,-30.4 1800.37,-30.13 1802.52,-36.79"/>
<text text-anchor="middle" x="1754.71" y="-57.2" font-family="Times,serif" font-size="14.00">isEastOf</text>
</g>
<!-- idPebble1 -->
<g id="node14" class="node">
<title>idPebble1</title>
<ellipse fill="none" stroke="black" cx="1956.46" cy="-18" rx="47.77" ry="18"/>
<text text-anchor="middle" x="1956.46" y="-12.95" font-family="Times,serif" font-size="14.00">idPebble1</text>
</g>
<!-- idBranch1&#45;&gt;idPebble1 -->
<g id="edge14" class="edge">
<title>idBranch1&#45;&gt;idPebble1</title>
<path fill="none" stroke="black" d="M1272.25,-106.07C1370.44,-106.37 1595.65,-103.06 1781.46,-70.5 1827.12,-62.5 1877.77,-46.81 1912.78,-34.84"/>
<polygon fill="black" stroke="black" points="1913.82,-37.84 1922.12,-31.26 1911.53,-31.23 1913.82,-37.84"/>
<text text-anchor="middle" x="1873.71" y="-57.2" font-family="Times,serif" font-size="14.00">isEastOf</text>
</g>
<!-- idRockPile1 -->
<g id="node15" class="node">
<title>idRockPile1</title>
<ellipse fill="none" stroke="black" cx="2078.46" cy="-18" rx="56.47" ry="18"/>
<text text-anchor="middle" x="2078.46" y="-12.95" font-family="Times,serif" font-size="14.00">idRockPile1</text>
</g>
<!-- idBranch1&#45;&gt;idRockPile1 -->
<g id="edge15" class="edge">
<title>idBranch1&#45;&gt;idRockPile1</title>
<path fill="none" stroke="black" d="M1271.8,-104.43C1406.65,-101.25 1779.43,-90.85 1900.46,-70.5 1946.08,-62.83 1996.62,-47.52 2032.15,-35.58"/>
<polygon fill="black" stroke="black" points="2032.88,-38.69 2041.21,-32.16 2030.62,-32.07 2032.88,-38.69"/>
<text text-anchor="middle" x="1993.71" y="-57.2" font-family="Times,serif" font-size="14.00">isEastOf</text>
</g>
</g>
</svg>
