<?xml version="1.0" encoding="UTF-8" standalone="no"?>
<!DOCTYPE svg PUBLIC "-//W3C//DTD SVG 1.1//EN"
 "http://www.w3.org/Graphics/SVG/1.1/DTD/svg11.dtd">
<!-- Generated by graphviz version 8.1.0 (20230707.0739)
 -->
<!-- Pages: 1 -->
<svg width="3176pt" height="133pt"
 viewBox="0.00 0.00 3175.86 132.50" xmlns="http://www.w3.org/2000/svg" xmlns:xlink="http://www.w3.org/1999/xlink">
<g id="graph0" class="graph" transform="scale(1 1) rotate(0) translate(4 128.5)">
<polygon fill="white" stroke="none" points="-4,4 -4,-128.5 3171.86,-128.5 3171.86,4 -4,4"/>
<!-- idGlowingGrass1 -->
<g id="node1" class="node">
<title>idGlowingGrass1</title>
<ellipse fill="none" stroke="black" cx="1803.39" cy="-106.5" rx="75.92" ry="18"/>
<text text-anchor="middle" x="1803.39" y="-101.45" font-family="Times,serif" font-size="14.00">idGlowingGrass1</text>
</g>
<!-- idGlowingGrass1&#45;&gt;idGlowingGrass1 -->
<g id="edge10" class="edge">
<title>idGlowingGrass1&#45;&gt;idGlowingGrass1</title>
<path fill="none" stroke="black" d="M1872.19,-114.53C1886.78,-113.71 1897.31,-111.04 1897.31,-106.5 1897.31,-103.2 1891.75,-100.89 1883.11,-99.56"/>
<polygon fill="black" stroke="black" points="1883.49,-95.98 1873.19,-98.47 1882.79,-102.94 1883.49,-95.98"/>
<text text-anchor="middle" x="1914.93" y="-101.45" font-family="Times,serif" font-size="14.00">isNear</text>
</g>
<!-- green -->
<g id="node2" class="node">
<title>green</title>
<ellipse fill="none" stroke="black" cx="31.39" cy="-18" rx="31.39" ry="18"/>
<text text-anchor="middle" x="31.39" y="-12.95" font-family="Times,serif" font-size="14.00">green</text>
</g>
<!-- idGlowingGrass1&#45;&gt;green -->
<g id="edge1" class="edge">
<title>idGlowingGrass1&#45;&gt;green</title>
<path fill="none" stroke="black" d="M1727.26,-104.9C1397.19,-102.17 104.77,-90.25 67.64,-70.5 57.29,-64.99 49.25,-55.06 43.4,-45.38"/>
<polygon fill="black" stroke="black" points="46.13,-44.07 38.28,-36.95 39.98,-47.41 46.13,-44.07"/>
<text text-anchor="middle" x="155.77" y="-57.2" font-family="Times,serif" font-size="14.00">idGlowingGrass1_prop_idColor</text>
</g>
<!-- bright -->
<g id="node3" class="node">
<title>bright</title>
<ellipse fill="none" stroke="black" cx="229.39" cy="-18" rx="32.93" ry="18"/>
<text text-anchor="middle" x="229.39" y="-12.95" font-family="Times,serif" font-size="14.00">bright</text>
</g>
<!-- idGlowingGrass1&#45;&gt;bright -->
<g id="edge2" class="edge">
<title>idGlowingGrass1&#45;&gt;bright</title>
<path fill="none" stroke="black" d="M1727.16,-105.76C1425.18,-106.55 326.15,-106.89 261.89,-70.5 252.2,-65.01 244.97,-55.31 239.83,-45.8"/>
<polygon fill="black" stroke="black" points="242.69,-44.65 235.21,-37.14 236.37,-47.67 242.69,-44.65"/>
<text text-anchor="middle" x="345.64" y="-57.2" font-family="Times,serif" font-size="14.00">idGlowingGrass1_prop_idTint</text>
</g>
<!-- glowing -->
<g id="node4" class="node">
<title>glowing</title>
<ellipse fill="none" stroke="black" cx="419.39" cy="-18" rx="41.12" ry="18"/>
<text text-anchor="middle" x="419.39" y="-12.95" font-family="Times,serif" font-size="14.00">glowing</text>
</g>
<!-- idGlowingGrass1&#45;&gt;glowing -->
<g id="edge3" class="edge">
<title>idGlowingGrass1&#45;&gt;glowing</title>
<path fill="none" stroke="black" d="M1727.13,-105.66C1448.79,-105.96 500.97,-104.48 446.39,-70.5 437.61,-65.03 431.53,-55.7 427.4,-46.46"/>
<polygon fill="black" stroke="black" points="430.36,-45.38 423.53,-37.29 423.82,-47.88 430.36,-45.38"/>
<text text-anchor="middle" x="546.89" y="-57.2" font-family="Times,serif" font-size="14.00">idGlowingGrass1_prop_idDescriptor</text>
</g>
<!-- glowing grass -->
<g id="node5" class="node">
<title>glowing grass</title>
<ellipse fill="none" stroke="black" cx="643.39" cy="-18" rx="62.61" ry="18"/>
<text text-anchor="middle" x="643.39" y="-12.95" font-family="Times,serif" font-size="14.00">glowing grass</text>
</g>
<!-- idGlowingGrass1&#45;&gt;glowing grass -->
<g id="edge4" class="edge">
<title>idGlowingGrass1&#45;&gt;glowing grass</title>
<path fill="none" stroke="black" d="M1727.51,-105.46C1479.59,-105.02 706.79,-101.19 663.39,-70.5 655.6,-64.99 650.84,-55.98 647.94,-47.02"/>
<polygon fill="black" stroke="black" points="651.09,-46.2 645.24,-37.36 644.3,-47.92 651.09,-46.2"/>
<text text-anchor="middle" x="772.89" y="-57.2" font-family="Times,serif" font-size="14.00">idGlowingGrass1_prop_idDisplayName</text>
</g>
<!-- This grass is glowing bright green. -->
<g id="node6" class="node">
<title>This grass is glowing bright green.</title>
<ellipse fill="none" stroke="black" cx="885.39" cy="-18" rx="140.41" ry="18"/>
<text text-anchor="middle" x="885.39" y="-12.95" font-family="Times,serif" font-size="14.00">This grass is glowing bright green.</text>
</g>
<!-- idGlowingGrass1&#45;&gt;This grass is glowing bright green. -->
<g id="edge5" class="edge">
<title>idGlowingGrass1&#45;&gt;This grass is glowing bright green.</title>
<path fill="none" stroke="black" d="M1727.56,-105.1C1515.09,-103.65 927.36,-97.23 895.89,-70.5 889.04,-64.69 885.91,-55.73 884.65,-46.9"/>
<polygon fill="black" stroke="black" points="888.08,-46.78 883.91,-37.05 881.1,-47.26 888.08,-46.78"/>
<text text-anchor="middle" x="1005.14" y="-57.2" font-family="Times,serif" font-size="14.00">idGlowingGrass1_prop_idExamineText</text>
</g>
<!-- uncountable -->
<g id="node7" class="node">
<title>uncountable</title>
<ellipse fill="none" stroke="black" cx="1126.39" cy="-18" rx="55.96" ry="18"/>
<text text-anchor="middle" x="1126.39" y="-12.95" font-family="Times,serif" font-size="14.00">uncountable</text>
</g>
<!-- idGlowingGrass1&#45;&gt;uncountable -->
<g id="edge6" class="edge">
<title>idGlowingGrass1&#45;&gt;uncountable</title>
<path fill="none" stroke="black" d="M1727.78,-104.37C1554.84,-101.41 1143.69,-92.14 1123.14,-70.5 1117.15,-64.2 1116.17,-55.27 1117.26,-46.62"/>
<polygon fill="black" stroke="black" points="1120.86,-47.54 1119.53,-37.03 1114.01,-46.07 1120.86,-47.54"/>
<text text-anchor="middle" x="1228.02" y="-57.2" font-family="Times,serif" font-size="14.00">idGlowingGrass1_prop_idArticleType</text>
</g>
<!-- yes -->
<g id="node8" class="node">
<title>yes</title>
<ellipse fill="none" stroke="black" cx="1270.39" cy="-18" rx="27" ry="18"/>
<text text-anchor="middle" x="1270.39" y="-12.95" font-family="Times,serif" font-size="14.00">yes</text>
</g>
<!-- idGlowingGrass1&#45;&gt;yes -->
<g id="edge7" class="edge">
<title>idGlowingGrass1&#45;&gt;yes</title>
<path fill="none" stroke="black" d="M1727.33,-105.27C1617.5,-103.97 1420.52,-97.77 1355.39,-70.5 1345.07,-66.18 1345.61,-60.33 1336.39,-54 1325.66,-46.64 1313.21,-39.68 1302.03,-33.93"/>
<polygon fill="black" stroke="black" points="1303.72,-30.35 1293.21,-29.01 1300.59,-36.61 1303.72,-30.35"/>
<text text-anchor="middle" x="1458.89" y="-57.2" font-family="Times,serif" font-size="14.00">idGlowingGrass1_prop_idImmovable</text>
</g>
<!-- idGlowingArea1 -->
<g id="node9" class="node">
<title>idGlowingArea1</title>
<ellipse fill="none" stroke="black" cx="1388.39" cy="-18" rx="72.85" ry="18"/>
<text text-anchor="middle" x="1388.39" y="-12.95" font-family="Times,serif" font-size="14.00">idGlowingArea1</text>
</g>
<!-- idGlowingGrass1&#45;&gt;idGlowingArea1 -->
<g id="edge8" class="edge">
<title>idGlowingGrass1&#45;&gt;idGlowingArea1</title>
<path fill="none" stroke="black" d="M1727.85,-103.72C1684.35,-100.22 1629.66,-91.48 1585.14,-70.5 1575.1,-65.77 1576.37,-58.86 1566.39,-54 1527.37,-34.98 1512.98,-44.41 1470.39,-36 1464.77,-34.89 1458.95,-33.72 1453.1,-32.54"/>
<polygon fill="black" stroke="black" points="1454.11,-28.97 1443.61,-30.39 1452.71,-35.82 1454.11,-28.97"/>
<text text-anchor="middle" x="1603.02" y="-57.2" font-family="Times,serif" font-size="14.00">isNear</text>
</g>
<!-- idTheTrees1 -->
<g id="node10" class="node">
<title>idTheTrees1</title>
<ellipse fill="none" stroke="black" cx="1536.39" cy="-18" rx="57.49" ry="18"/>
<text text-anchor="middle" x="1536.39" y="-12.95" font-family="Times,serif" font-size="14.00">idTheTrees1</text>
</g>
<!-- idGlowingGrass1&#45;&gt;idTheTrees1 -->
<g id="edge9" class="edge">
<title>idGlowingGrass1&#45;&gt;idTheTrees1</title>
<path fill="none" stroke="black" d="M1739.46,-96.4C1711.05,-91 1677.65,-82.74 1649.14,-70.5 1636.99,-65.28 1636.1,-60.14 1624.39,-54 1611.63,-47.3 1597.29,-41.09 1583.95,-35.81"/>
<polygon fill="black" stroke="black" points="1585.57,-32.3 1574.98,-31.97 1583.05,-38.83 1585.57,-32.3"/>
<text text-anchor="middle" x="1677.52" y="-57.2" font-family="Times,serif" font-size="14.00">isInsideOf</text>
</g>
<!-- idClearing1 -->
<g id="node11" class="node">
<title>idClearing1</title>
<ellipse fill="none" stroke="black" cx="1666.39" cy="-18" rx="54.42" ry="18"/>
<text text-anchor="middle" x="1666.39" y="-12.95" font-family="Times,serif" font-size="14.00">idClearing1</text>
</g>
<!-- idGlowingGrass1&#45;&gt;idClearing1 -->
<g id="edge11" class="edge">
<title>idGlowingGrass1&#45;&gt;idClearing1</title>
<path fill="none" stroke="black" d="M1768.28,-90.22C1756.35,-84.55 1743.14,-77.73 1731.64,-70.5 1718.3,-62.12 1704.47,-51.52 1693,-42.12"/>
<polygon fill="black" stroke="black" points="1695.65,-38.94 1685.73,-35.22 1691.17,-44.31 1695.65,-38.94"/>
<text text-anchor="middle" x="1759.77" y="-57.2" font-family="Times,serif" font-size="14.00">isSouthOf</text>
</g>
<!-- idCave1 -->
<g id="node12" class="node">
<title>idCave1</title>
<ellipse fill="none" stroke="black" cx="1780.39" cy="-18" rx="41.63" ry="18"/>
<text text-anchor="middle" x="1780.39" y="-12.95" font-family="Times,serif" font-size="14.00">idCave1</text>
</g>
<!-- idGlowingGrass1&#45;&gt;idCave1 -->
<g id="edge12" class="edge">
<title>idGlowingGrass1&#45;&gt;idCave1</title>
<path fill="none" stroke="black" d="M1798.85,-88.41C1795.69,-76.52 1791.4,-60.41 1787.76,-46.7"/>
<polygon fill="black" stroke="black" points="1790.96,-46.11 1785,-37.35 1784.19,-47.91 1790.96,-46.11"/>
<text text-anchor="middle" x="1821.77" y="-57.2" font-family="Times,serif" font-size="14.00">isSouthOf</text>
</g>
<!-- idRockyArea1 -->
<g id="node13" class="node">
<title>idRockyArea1</title>
<ellipse fill="none" stroke="black" cx="1904.39" cy="-18" rx="64.66" ry="18"/>
<text text-anchor="middle" x="1904.39" y="-12.95" font-family="Times,serif" font-size="14.00">idRockyArea1</text>
</g>
<!-- idGlowingGrass1&#45;&gt;idRockyArea1 -->
<g id="edge13" class="edge">
<title>idGlowingGrass1&#45;&gt;idRockyArea1</title>
<path fill="none" stroke="black" d="M1828.71,-89.08C1836.83,-83.48 1845.7,-76.99 1853.39,-70.5 1863.26,-62.18 1873.41,-52.26 1882.03,-43.35"/>
<polygon fill="black" stroke="black" points="1884.11,-46.19 1888.47,-36.54 1879.04,-41.37 1884.11,-46.19"/>
<text text-anchor="middle" x="1894.64" y="-57.2" font-family="Times,serif" font-size="14.00">isEastOf</text>
</g>
<!-- idBottle1 -->
<g id="node14" class="node">
<title>idBottle1</title>
<ellipse fill="none" stroke="black" cx="2032.39" cy="-18" rx="45.21" ry="18"/>
<text text-anchor="middle" x="2032.39" y="-12.95" font-family="Times,serif" font-size="14.00">idBottle1</text>
</g>
<!-- idGlowingGrass1&#45;&gt;idBottle1 -->
<g id="edge14" class="edge">
<title>idGlowingGrass1&#45;&gt;idBottle1</title>
<path fill="none" stroke="black" d="M1853.01,-92.52C1874.3,-86.51 1899.3,-78.85 1921.39,-70.5 1946.78,-60.9 1974.48,-48.06 1995.85,-37.6"/>
<polygon fill="black" stroke="black" points="1997.08,-40.4 2004.5,-32.83 1993.98,-34.12 1997.08,-40.4"/>
<text text-anchor="middle" x="1982.64" y="-57.2" font-family="Times,serif" font-size="14.00">isEastOf</text>
</g>
<!-- idBranch1 -->
<g id="node15" class="node">
<title>idBranch1</title>
<ellipse fill="none" stroke="black" cx="2145.39" cy="-18" rx="49.3" ry="18"/>
<text text-anchor="middle" x="2145.39" y="-12.95" font-family="Times,serif" font-size="14.00">idBranch1</text>
</g>
<!-- idGlowingGrass1&#45;&gt;idBranch1 -->
<g id="edge15" class="edge">
<title>idGlowingGrass1&#45;&gt;idBranch1</title>
<path fill="none" stroke="black" d="M1869.97,-97.52C1910.66,-91.83 1963.53,-82.95 2009.39,-70.5 2042.19,-61.59 2078.11,-47.81 2104.79,-36.75"/>
<polygon fill="black" stroke="black" points="2106.03,-39.6 2113.9,-32.5 2103.32,-33.15 2106.03,-39.6"/>
<text text-anchor="middle" x="2086.77" y="-57.2" font-family="Times,serif" font-size="14.00">isSouthOf</text>
</g>
<!-- idGrass1 -->
<g id="node16" class="node">
<title>idGrass1</title>
<ellipse fill="none" stroke="black" cx="2256.39" cy="-18" rx="43.67" ry="18"/>
<text text-anchor="middle" x="2256.39" y="-12.95" font-family="Times,serif" font-size="14.00">idGrass1</text>
</g>
<!-- idGlowingGrass1&#45;&gt;idGrass1 -->
<g id="edge16" class="edge">
<title>idGlowingGrass1&#45;&gt;idGrass1</title>
<path fill="none" stroke="black" d="M1877.79,-102.4C1942.18,-98.5 2037.43,-89.79 2118.39,-70.5 2153.02,-62.25 2190.8,-47.74 2218.06,-36.22"/>
<polygon fill="black" stroke="black" points="2219.15,-39.13 2226.96,-31.97 2216.39,-32.7 2219.15,-39.13"/>
<text text-anchor="middle" x="2200.77" y="-57.2" font-family="Times,serif" font-size="14.00">isSouthOf</text>
</g>
<!-- idPebble1 -->
<g id="node17" class="node">
<title>idPebble1</title>
<ellipse fill="none" stroke="black" cx="2365.39" cy="-18" rx="47.77" ry="18"/>
<text text-anchor="middle" x="2365.39" y="-12.95" font-family="Times,serif" font-size="14.00">idPebble1</text>
</g>
<!-- idGlowingGrass1&#45;&gt;idPebble1 -->
<g id="edge17" class="edge">
<title>idGlowingGrass1&#45;&gt;idPebble1</title>
<path fill="none" stroke="black" d="M1879.56,-105.85C1966.12,-104.75 2111.12,-98.31 2232.39,-70.5 2265.31,-62.95 2300.9,-48.83 2326.98,-37.28"/>
<polygon fill="black" stroke="black" points="2328.15,-40.14 2335.83,-32.84 2325.28,-33.75 2328.15,-40.14"/>
<text text-anchor="middle" x="2308.64" y="-57.2" font-family="Times,serif" font-size="14.00">isEastOf</text>
</g>
<!-- idPlayer -->
<g id="node18" class="node">
<title>idPlayer</title>
<ellipse fill="none" stroke="black" cx="2472.39" cy="-18" rx="41.63" ry="18"/>
<text text-anchor="middle" x="2472.39" y="-12.95" font-family="Times,serif" font-size="14.00">idPlayer</text>
</g>
<!-- idGlowingGrass1&#45;&gt;idPlayer -->
<g id="edge18" class="edge">
<title>idGlowingGrass1&#45;&gt;idPlayer</title>
<path fill="none" stroke="black" d="M1878.56,-103.27C2003.95,-99.1 2250.46,-88.84 2335.39,-70.5 2370.3,-62.96 2408.17,-48.18 2435.23,-36.38"/>
<polygon fill="black" stroke="black" points="2436.32,-39.28 2444.04,-32.02 2433.48,-32.88 2436.32,-39.28"/>
<text text-anchor="middle" x="2416.77" y="-57.2" font-family="Times,serif" font-size="14.00">isSouthOf</text>
</g>
<!-- idPlayerBackside -->
<g id="node19" class="node">
<title>idPlayerBackside</title>
<ellipse fill="none" stroke="black" cx="2607.39" cy="-18" rx="75.41" ry="18"/>
<text text-anchor="middle" x="2607.39" y="-12.95" font-family="Times,serif" font-size="14.00">idPlayerBackside</text>
</g>
<!-- idGlowingGrass1&#45;&gt;idPlayerBackside -->
<g id="edge19" class="edge">
<title>idGlowingGrass1&#45;&gt;idPlayerBackside</title>
<path fill="none" stroke="black" d="M1878.9,-103.85C2024.96,-100.26 2341.24,-90.41 2448.39,-70.5 2486.84,-63.36 2528.87,-49.46 2560.05,-37.9"/>
<polygon fill="black" stroke="black" points="2561.07,-40.89 2569.19,-34.09 2558.6,-34.33 2561.07,-40.89"/>
<text text-anchor="middle" x="2538.77" y="-57.2" font-family="Times,serif" font-size="14.00">isSouthOf</text>
</g>
<!-- idPlayerLeftHand -->
<g id="node20" class="node">
<title>idPlayerLeftHand</title>
<ellipse fill="none" stroke="black" cx="2777.39" cy="-18" rx="76.94" ry="18"/>
<text text-anchor="middle" x="2777.39" y="-12.95" font-family="Times,serif" font-size="14.00">idPlayerLeftHand</text>
</g>
<!-- idGlowingGrass1&#45;&gt;idPlayerLeftHand -->
<g id="edge20" class="edge">
<title>idGlowingGrass1&#45;&gt;idPlayerLeftHand</title>
<path fill="none" stroke="black" d="M1878.82,-103.96C2045.04,-100.26 2438.57,-89.71 2570.39,-70.5 2622.47,-62.91 2680.53,-47.87 2721.87,-36"/>
<polygon fill="black" stroke="black" points="2722.65,-39.13 2731.27,-32.98 2720.69,-32.41 2722.65,-39.13"/>
<text text-anchor="middle" x="2678.77" y="-57.2" font-family="Times,serif" font-size="14.00">isSouthOf</text>
</g>
<!-- idPlayerRightHand -->
<g id="node21" class="node">
<title>idPlayerRightHand</title>
<ellipse fill="none" stroke="black" cx="2954.39" cy="-18" rx="82.06" ry="18"/>
<text text-anchor="middle" x="2954.39" y="-12.95" font-family="Times,serif" font-size="14.00">idPlayerRightHand</text>
</g>
<!-- idGlowingGrass1&#45;&gt;idPlayerRightHand -->
<g id="edge21" class="edge">
<title>idGlowingGrass1&#45;&gt;idPlayerRightHand</title>
<path fill="none" stroke="black" d="M1878.98,-104.23C2066.68,-100.82 2550.39,-90.33 2710.39,-70.5 2773.24,-62.71 2843.92,-47.01 2892.97,-34.98"/>
<polygon fill="black" stroke="black" points="2893.54,-38.2 2902.41,-32.4 2891.86,-31.4 2893.54,-38.2"/>
<text text-anchor="middle" x="2832.77" y="-57.2" font-family="Times,serif" font-size="14.00">isSouthOf</text>
</g>
<!-- idRockPile1 -->
<g id="node22" class="node">
<title>idRockPile1</title>
<ellipse fill="none" stroke="black" cx="3111.39" cy="-18" rx="56.47" ry="18"/>
<text text-anchor="middle" x="3111.39" y="-12.95" font-family="Times,serif" font-size="14.00">idRockPile1</text>
</g>
<!-- idGlowingGrass1&#45;&gt;idRockPile1 -->
<g id="edge22" class="edge">
<title>idGlowingGrass1&#45;&gt;idRockPile1</title>
<path fill="none" stroke="black" d="M1879.32,-104.53C2089.03,-101.6 2673.32,-91.73 2864.39,-70.5 2932.33,-62.95 3009.22,-45.47 3058.91,-32.97"/>
<polygon fill="black" stroke="black" points="3059.56,-36.16 3068.39,-30.3 3057.83,-29.38 3059.56,-36.16"/>
<text text-anchor="middle" x="2983.64" y="-57.2" font-family="Times,serif" font-size="14.00">isEastOf</text>
</g>
</g>
</svg>
