<?xml version="1.0" encoding="UTF-8" standalone="no"?>
<!DOCTYPE svg PUBLIC "-//W3C//DTD SVG 1.1//EN"
 "http://www.w3.org/Graphics/SVG/1.1/DTD/svg11.dtd">
<!-- Generated by graphviz version 8.1.0 (20230707.0739)
 -->
<!-- Pages: 1 -->
<svg width="2205pt" height="133pt"
 viewBox="0.00 0.00 2205.18 132.50" xmlns="http://www.w3.org/2000/svg" xmlns:xlink="http://www.w3.org/1999/xlink">
<g id="graph0" class="graph" transform="scale(1 1) rotate(0) translate(4 128.5)">
<polygon fill="white" stroke="none" points="-4,4 -4,-128.5 2201.18,-128.5 2201.18,4 -4,4"/>
<!-- idGlowingArea1 -->
<g id="node1" class="node">
<title>idGlowingArea1</title>
<ellipse fill="none" stroke="black" cx="1115.12" cy="-106.5" rx="72.85" ry="18"/>
<text text-anchor="middle" x="1115.12" y="-101.45" font-family="Times,serif" font-size="14.00">idGlowingArea1</text>
</g>
<!-- idGlowingArea1&#45;&gt;idGlowingArea1 -->
<g id="edge7" class="edge">
<title>idGlowingArea1&#45;&gt;idGlowingArea1</title>
<path fill="none" stroke="black" d="M1180.85,-114.57C1195.38,-113.81 1205.96,-111.12 1205.96,-106.5 1205.96,-103.14 1200.38,-100.8 1191.75,-99.48"/>
<polygon fill="black" stroke="black" points="1192.15,-95.91 1181.85,-98.43 1191.47,-102.87 1192.15,-95.91"/>
<text text-anchor="middle" x="1223.59" y="-101.45" font-family="Times,serif" font-size="14.00">isNear</text>
</g>
<!-- glowing -->
<g id="node2" class="node">
<title>glowing</title>
<ellipse fill="none" stroke="black" cx="41.12" cy="-18" rx="41.12" ry="18"/>
<text text-anchor="middle" x="41.12" y="-12.95" font-family="Times,serif" font-size="14.00">glowing</text>
</g>
<!-- idGlowingArea1&#45;&gt;glowing -->
<g id="edge1" class="edge">
<title>idGlowingArea1&#45;&gt;glowing</title>
<path fill="none" stroke="black" d="M1042.06,-105.78C823.98,-106.23 187.41,-104.56 100.62,-70.5 85.82,-64.69 72.18,-53.53 61.71,-43.07"/>
<polygon fill="black" stroke="black" points="64.77,-41.16 55.35,-36.32 59.69,-45.98 64.77,-41.16"/>
<text text-anchor="middle" x="199.37" y="-57.2" font-family="Times,serif" font-size="14.00">idGlowingArea1_prop_idDescriptor</text>
</g>
<!-- glowing field -->
<g id="node3" class="node">
<title>glowing field</title>
<ellipse fill="none" stroke="black" cx="261.12" cy="-18" rx="60.56" ry="18"/>
<text text-anchor="middle" x="261.12" y="-12.95" font-family="Times,serif" font-size="14.00">glowing field</text>
</g>
<!-- idGlowingArea1&#45;&gt;glowing field -->
<g id="edge2" class="edge">
<title>idGlowingArea1&#45;&gt;glowing field</title>
<path fill="none" stroke="black" d="M1042.41,-104.74C860.33,-102.48 394.54,-94.42 328.62,-70.5 312.56,-64.67 297.21,-53.57 285.22,-43.16"/>
<polygon fill="black" stroke="black" points="287.87,-40.93 278.11,-36.79 283.15,-46.11 287.87,-40.93"/>
<text text-anchor="middle" x="436.37" y="-57.2" font-family="Times,serif" font-size="14.00">idGlowingArea1_prop_idDisplayName</text>
</g>
<!-- idGlowingGrass1 -->
<g id="node4" class="node">
<title>idGlowingGrass1</title>
<ellipse fill="none" stroke="black" cx="415.12" cy="-18" rx="75.92" ry="18"/>
<text text-anchor="middle" x="415.12" y="-12.95" font-family="Times,serif" font-size="14.00">idGlowingGrass1</text>
</g>
<!-- idGlowingArea1&#45;&gt;idGlowingGrass1 -->
<g id="edge3" class="edge">
<title>idGlowingArea1&#45;&gt;idGlowingGrass1</title>
<path fill="none" stroke="black" d="M1042.76,-103.96C947.57,-101.11 775.31,-93.03 629.87,-70.5 575.9,-62.14 515.51,-47.14 472.55,-35.48"/>
<polygon fill="black" stroke="black" points="473.59,-31.86 463.02,-32.59 471.73,-38.61 473.59,-31.86"/>
<text text-anchor="middle" x="647.74" y="-57.2" font-family="Times,serif" font-size="14.00">isNear</text>
</g>
<!-- idTheTrees1 -->
<g id="node5" class="node">
<title>idTheTrees1</title>
<ellipse fill="none" stroke="black" cx="566.12" cy="-18" rx="57.49" ry="18"/>
<text text-anchor="middle" x="566.12" y="-12.95" font-family="Times,serif" font-size="14.00">idTheTrees1</text>
</g>
<!-- idGlowingArea1&#45;&gt;idTheTrees1 -->
<g id="edge4" class="edge">
<title>idGlowingArea1&#45;&gt;idTheTrees1</title>
<path fill="none" stroke="black" d="M1043.17,-103.31C966.04,-99.95 840.32,-91.49 733.87,-70.5 692.06,-62.26 645.86,-47.65 612.55,-36.09"/>
<polygon fill="black" stroke="black" points="613.81,-32.47 603.21,-32.46 611.49,-39.07 613.81,-32.47"/>
<text text-anchor="middle" x="762.24" y="-57.2" font-family="Times,serif" font-size="14.00">isInsideOf</text>
</g>
<!-- idClearing1 -->
<g id="node6" class="node">
<title>idClearing1</title>
<ellipse fill="none" stroke="black" cx="696.12" cy="-18" rx="54.42" ry="18"/>
<text text-anchor="middle" x="696.12" y="-12.95" font-family="Times,serif" font-size="14.00">idClearing1</text>
</g>
<!-- idGlowingArea1&#45;&gt;idClearing1 -->
<g id="edge5" class="edge">
<title>idGlowingArea1&#45;&gt;idClearing1</title>
<path fill="none" stroke="black" d="M1046.2,-100.19C991.94,-95.12 914.67,-85.91 848.37,-70.5 811.05,-61.83 769.96,-47.64 739.88,-36.35"/>
<polygon fill="black" stroke="black" points="741.32,-32.77 730.73,-32.49 738.83,-39.32 741.32,-32.77"/>
<text text-anchor="middle" x="876.49" y="-57.2" font-family="Times,serif" font-size="14.00">isSouthOf</text>
</g>
<!-- idRockyArea1 -->
<g id="node7" class="node">
<title>idRockyArea1</title>
<ellipse fill="none" stroke="black" cx="833.12" cy="-18" rx="64.66" ry="18"/>
<text text-anchor="middle" x="833.12" y="-12.95" font-family="Times,serif" font-size="14.00">idRockyArea1</text>
</g>
<!-- idGlowingArea1&#45;&gt;idRockyArea1 -->
<g id="edge6" class="edge">
<title>idGlowingArea1&#45;&gt;idRockyArea1</title>
<path fill="none" stroke="black" d="M1054.98,-96.04C1022.96,-90.21 983.18,-81.7 948.62,-70.5 922.53,-62.05 894.41,-49.59 872.45,-39.04"/>
<polygon fill="black" stroke="black" points="874.35,-35.58 863.82,-34.35 871.28,-41.88 874.35,-35.58"/>
<text text-anchor="middle" x="972.37" y="-57.2" font-family="Times,serif" font-size="14.00">isEastOf</text>
</g>
<!-- idPlayer -->
<g id="node8" class="node">
<title>idPlayer</title>
<ellipse fill="none" stroke="black" cx="957.12" cy="-18" rx="41.63" ry="18"/>
<text text-anchor="middle" x="957.12" y="-12.95" font-family="Times,serif" font-size="14.00">idPlayer</text>
</g>
<!-- idGlowingArea1&#45;&gt;idPlayer -->
<g id="edge8" class="edge">
<title>idGlowingArea1&#45;&gt;idPlayer</title>
<path fill="none" stroke="black" d="M1071.96,-91.72C1056.51,-86.04 1039.24,-78.84 1024.37,-70.5 1009.81,-62.34 994.95,-51.3 982.91,-41.53"/>
<polygon fill="black" stroke="black" points="985.61,-38.4 975.68,-34.7 981.14,-43.78 985.61,-38.4"/>
<text text-anchor="middle" x="1052.49" y="-57.2" font-family="Times,serif" font-size="14.00">isSouthOf</text>
</g>
<!-- idGrass1 -->
<g id="node9" class="node">
<title>idGrass1</title>
<ellipse fill="none" stroke="black" cx="1060.12" cy="-18" rx="43.67" ry="18"/>
<text text-anchor="middle" x="1060.12" y="-12.95" font-family="Times,serif" font-size="14.00">idGrass1</text>
</g>
<!-- idGlowingArea1&#45;&gt;idGrass1 -->
<g id="edge9" class="edge">
<title>idGlowingArea1&#45;&gt;idGrass1</title>
<path fill="none" stroke="black" d="M1104.25,-88.41C1096.36,-76.01 1085.56,-59.01 1076.61,-44.94"/>
<polygon fill="black" stroke="black" points="1079.09,-43.32 1070.77,-36.76 1073.18,-47.08 1079.09,-43.32"/>
<text text-anchor="middle" x="1120.49" y="-57.2" font-family="Times,serif" font-size="14.00">isSouthOf</text>
</g>
<!-- idBranch1 -->
<g id="node10" class="node">
<title>idBranch1</title>
<ellipse fill="none" stroke="black" cx="1171.12" cy="-18" rx="49.3" ry="18"/>
<text text-anchor="middle" x="1171.12" y="-12.95" font-family="Times,serif" font-size="14.00">idBranch1</text>
</g>
<!-- idGlowingArea1&#45;&gt;idBranch1 -->
<g id="edge10" class="edge">
<title>idGlowingArea1&#45;&gt;idBranch1</title>
<path fill="none" stroke="black" d="M1133.78,-88.8C1139.19,-83.33 1144.8,-76.99 1149.12,-70.5 1154.06,-63.07 1158.29,-54.35 1161.68,-46.22"/>
<polygon fill="black" stroke="black" points="1165.28,-47.61 1165.64,-37.02 1158.75,-45.08 1165.28,-47.61"/>
<text text-anchor="middle" x="1185.49" y="-57.2" font-family="Times,serif" font-size="14.00">isSouthOf</text>
</g>
<!-- idRockPile1 -->
<g id="node11" class="node">
<title>idRockPile1</title>
<ellipse fill="none" stroke="black" cx="1295.12" cy="-18" rx="56.47" ry="18"/>
<text text-anchor="middle" x="1295.12" y="-12.95" font-family="Times,serif" font-size="14.00">idRockPile1</text>
</g>
<!-- idGlowingArea1&#45;&gt;idRockPile1 -->
<g id="edge11" class="edge">
<title>idGlowingArea1&#45;&gt;idRockPile1</title>
<path fill="none" stroke="black" d="M1161.56,-92.31C1179.34,-86.55 1199.56,-79.13 1217.12,-70.5 1233.84,-62.28 1251.25,-51.07 1265.38,-41.2"/>
<polygon fill="black" stroke="black" points="1267.03,-43.62 1273.14,-34.96 1262.96,-37.91 1267.03,-43.62"/>
<text text-anchor="middle" x="1269.37" y="-57.2" font-family="Times,serif" font-size="14.00">isEastOf</text>
</g>
<!-- idPebble1 -->
<g id="node12" class="node">
<title>idPebble1</title>
<ellipse fill="none" stroke="black" cx="1417.12" cy="-18" rx="47.77" ry="18"/>
<text text-anchor="middle" x="1417.12" y="-12.95" font-family="Times,serif" font-size="14.00">idPebble1</text>
</g>
<!-- idGlowingArea1&#45;&gt;idPebble1 -->
<g id="edge12" class="edge">
<title>idGlowingArea1&#45;&gt;idPebble1</title>
<path fill="none" stroke="black" d="M1177.48,-96.78C1212.75,-91.02 1257.4,-82.34 1296.12,-70.5 1324.83,-61.72 1355.98,-48.37 1379.49,-37.46"/>
<polygon fill="black" stroke="black" points="1380.83,-40.22 1388.38,-32.8 1377.85,-33.89 1380.83,-40.22"/>
<text text-anchor="middle" x="1364.37" y="-57.2" font-family="Times,serif" font-size="14.00">isEastOf</text>
</g>
<!-- idCave1 -->
<g id="node13" class="node">
<title>idCave1</title>
<ellipse fill="none" stroke="black" cx="1524.12" cy="-18" rx="41.63" ry="18"/>
<text text-anchor="middle" x="1524.12" y="-12.95" font-family="Times,serif" font-size="14.00">idCave1</text>
</g>
<!-- idGlowingArea1&#45;&gt;idCave1 -->
<g id="edge13" class="edge">
<title>idGlowingArea1&#45;&gt;idCave1</title>
<path fill="none" stroke="black" d="M1185.47,-101.32C1241.77,-96.84 1322.4,-87.88 1391.12,-70.5 1424.39,-62.08 1460.62,-47.68 1486.85,-36.25"/>
<polygon fill="black" stroke="black" points="1488.01,-39.12 1495.74,-31.87 1485.18,-32.72 1488.01,-39.12"/>
<text text-anchor="middle" x="1467.49" y="-57.2" font-family="Times,serif" font-size="14.00">isSouthOf</text>
</g>
<!-- idBottle1 -->
<g id="node14" class="node">
<title>idBottle1</title>
<ellipse fill="none" stroke="black" cx="1629.12" cy="-18" rx="45.21" ry="18"/>
<text text-anchor="middle" x="1629.12" y="-12.95" font-family="Times,serif" font-size="14.00">idBottle1</text>
</g>
<!-- idGlowingArea1&#45;&gt;idBottle1 -->
<g id="edge14" class="edge">
<title>idGlowingArea1&#45;&gt;idBottle1</title>
<path fill="none" stroke="black" d="M1187.95,-105.03C1265.93,-103.1 1392.81,-95.84 1499.12,-70.5 1531.28,-62.83 1566.03,-48.74 1591.5,-37.23"/>
<polygon fill="black" stroke="black" points="1592.85,-40.01 1600.47,-32.65 1589.92,-33.65 1592.85,-40.01"/>
<text text-anchor="middle" x="1574.37" y="-57.2" font-family="Times,serif" font-size="14.00">isEastOf</text>
</g>
<!-- idPlayerBackside -->
<g id="node15" class="node">
<title>idPlayerBackside</title>
<ellipse fill="none" stroke="black" cx="1768.12" cy="-18" rx="75.41" ry="18"/>
<text text-anchor="middle" x="1768.12" y="-12.95" font-family="Times,serif" font-size="14.00">idPlayerBackside</text>
</g>
<!-- idGlowingArea1&#45;&gt;idPlayerBackside -->
<g id="edge15" class="edge">
<title>idGlowingArea1&#45;&gt;idPlayerBackside</title>
<path fill="none" stroke="black" d="M1188.23,-105.38C1283.92,-104.06 1456.45,-97.65 1601.12,-70.5 1641.61,-62.9 1686.14,-48.87 1719.02,-37.37"/>
<polygon fill="black" stroke="black" points="1720.02,-40.38 1728.27,-33.74 1717.68,-33.78 1720.02,-40.38"/>
<text text-anchor="middle" x="1694.49" y="-57.2" font-family="Times,serif" font-size="14.00">isSouthOf</text>
</g>
<!-- idPlayerLeftHand -->
<g id="node16" class="node">
<title>idPlayerLeftHand</title>
<ellipse fill="none" stroke="black" cx="1938.12" cy="-18" rx="76.94" ry="18"/>
<text text-anchor="middle" x="1938.12" y="-12.95" font-family="Times,serif" font-size="14.00">idPlayerLeftHand</text>
</g>
<!-- idGlowingArea1&#45;&gt;idPlayerLeftHand -->
<g id="edge16" class="edge">
<title>idGlowingArea1&#45;&gt;idPlayerLeftHand</title>
<path fill="none" stroke="black" d="M1187.97,-105.58C1302.96,-104.74 1533.27,-99.2 1726.12,-70.5 1779.47,-62.56 1839.08,-47.51 1881.47,-35.72"/>
<polygon fill="black" stroke="black" points="1882.18,-38.88 1890.86,-32.8 1880.29,-32.14 1882.18,-38.88"/>
<text text-anchor="middle" x="1836.49" y="-57.2" font-family="Times,serif" font-size="14.00">isSouthOf</text>
</g>
<!-- idPlayerRightHand -->
<g id="node17" class="node">
<title>idPlayerRightHand</title>
<ellipse fill="none" stroke="black" cx="2115.12" cy="-18" rx="82.06" ry="18"/>
<text text-anchor="middle" x="2115.12" y="-12.95" font-family="Times,serif" font-size="14.00">idPlayerRightHand</text>
</g>
<!-- idGlowingArea1&#45;&gt;idPlayerRightHand -->
<g id="edge17" class="edge">
<title>idGlowingArea1&#45;&gt;idPlayerRightHand</title>
<path fill="none" stroke="black" d="M1188.4,-105.95C1323.41,-105.93 1620.3,-101.89 1868.12,-70.5 1931.68,-62.45 2003.24,-46.79 2052.91,-34.84"/>
<polygon fill="black" stroke="black" points="2053.59,-38.03 2062.48,-32.27 2051.93,-31.23 2053.59,-38.03"/>
<text text-anchor="middle" x="1991.49" y="-57.2" font-family="Times,serif" font-size="14.00">isSouthOf</text>
</g>
</g>
</svg>
