<?xml version="1.0" encoding="UTF-8" standalone="no"?>
<!DOCTYPE svg PUBLIC "-//W3C//DTD SVG 1.1//EN"
 "http://www.w3.org/Graphics/SVG/1.1/DTD/svg11.dtd">
<!-- Generated by graphviz version 8.1.0 (20230707.0739)
 -->
<!-- Pages: 1 -->
<svg width="1395pt" height="133pt"
 viewBox="0.00 0.00 1395.14 132.50" xmlns="http://www.w3.org/2000/svg" xmlns:xlink="http://www.w3.org/1999/xlink">
<g id="graph0" class="graph" transform="scale(1 1) rotate(0) translate(4 128.5)">
<polygon fill="white" stroke="none" points="-4,4 -4,-128.5 1391.14,-128.5 1391.14,4 -4,4"/>
<!-- idGlowingFlower1 -->
<g id="node1" class="node">
<title>idGlowingFlower1</title>
<ellipse fill="none" stroke="black" cx="549.39" cy="-106.5" rx="81.04" ry="18"/>
<text text-anchor="middle" x="549.39" y="-101.45" font-family="Times,serif" font-size="14.00">idGlowingFlower1</text>
</g>
<!-- green -->
<g id="node2" class="node">
<title>green</title>
<ellipse fill="none" stroke="black" cx="31.39" cy="-18" rx="31.39" ry="18"/>
<text text-anchor="middle" x="31.39" y="-12.95" font-family="Times,serif" font-size="14.00">green</text>
</g>
<!-- idGlowingFlower1&#45;&gt;green -->
<g id="edge1" class="edge">
<title>idGlowingFlower1&#45;&gt;green</title>
<path fill="none" stroke="black" d="M468.5,-104.23C337.03,-101.51 88.25,-93.38 55.14,-70.5 46.99,-64.87 41.58,-55.71 38.01,-46.66"/>
<polygon fill="black" stroke="black" points="41.06,-45.72 34.62,-37.31 34.41,-47.91 41.06,-45.72"/>
<text text-anchor="middle" x="146.52" y="-57.2" font-family="Times,serif" font-size="14.00">idGlowingFlower1_prop_idColor</text>
</g>
<!-- bright -->
<g id="node3" class="node">
<title>bright</title>
<ellipse fill="none" stroke="black" cx="236.39" cy="-18" rx="32.93" ry="18"/>
<text text-anchor="middle" x="236.39" y="-12.95" font-family="Times,serif" font-size="14.00">bright</text>
</g>
<!-- idGlowingFlower1&#45;&gt;bright -->
<g id="edge2" class="edge">
<title>idGlowingFlower1&#45;&gt;bright</title>
<path fill="none" stroke="black" d="M468.16,-105.77C391.32,-104.34 283.16,-97.37 251.39,-70.5 244.49,-64.66 240.67,-55.85 238.58,-47.16"/>
<polygon fill="black" stroke="black" points="241.88,-46.72 236.76,-37.45 234.98,-47.89 241.88,-46.72"/>
<text text-anchor="middle" x="338.39" y="-57.2" font-family="Times,serif" font-size="14.00">idGlowingFlower1_prop_idTint</text>
</g>
<!-- glowing -->
<g id="node4" class="node">
<title>glowing</title>
<ellipse fill="none" stroke="black" cx="433.39" cy="-18" rx="41.12" ry="18"/>
<text text-anchor="middle" x="433.39" y="-12.95" font-family="Times,serif" font-size="14.00">glowing</text>
</g>
<!-- idGlowingFlower1&#45;&gt;glowing -->
<g id="edge3" class="edge">
<title>idGlowingFlower1&#45;&gt;glowing</title>
<path fill="none" stroke="black" d="M477.53,-97.95C461.07,-92.72 445.35,-84.22 434.89,-70.5 429.82,-63.85 428.25,-55.19 428.31,-46.87"/>
<polygon fill="black" stroke="black" points="431.87,-47.22 429.21,-36.96 424.9,-46.64 431.87,-47.22"/>
<text text-anchor="middle" x="539.64" y="-57.2" font-family="Times,serif" font-size="14.00">idGlowingFlower1_prop_idDescriptor</text>
</g>
<!-- glowing flower -->
<g id="node5" class="node">
<title>glowing flower</title>
<ellipse fill="none" stroke="black" cx="665.39" cy="-18" rx="67.73" ry="18"/>
<text text-anchor="middle" x="665.39" y="-12.95" font-family="Times,serif" font-size="14.00">glowing flower</text>
</g>
<!-- idGlowingFlower1&#45;&gt;glowing flower -->
<g id="edge4" class="edge">
<title>idGlowingFlower1&#45;&gt;glowing flower</title>
<path fill="none" stroke="black" d="M604.85,-93.19C618.72,-88.01 632.68,-80.72 643.39,-70.5 650.19,-64.01 655,-55.08 658.34,-46.47"/>
<polygon fill="black" stroke="black" points="661.88,-47.92 661.73,-37.32 655.24,-45.7 661.88,-47.92"/>
<text text-anchor="middle" x="768.64" y="-57.2" font-family="Times,serif" font-size="14.00">idGlowingFlower1_prop_idDisplayName</text>
</g>
<!-- This flower is glowing bright green. -->
<g id="node6" class="node">
<title>This flower is glowing bright green.</title>
<ellipse fill="none" stroke="black" cx="915.39" cy="-18" rx="145.52" ry="18"/>
<text text-anchor="middle" x="915.39" y="-12.95" font-family="Times,serif" font-size="14.00">This flower is glowing bright green.</text>
</g>
<!-- idGlowingFlower1&#45;&gt;This flower is glowing bright green. -->
<g id="edge5" class="edge">
<title>idGlowingFlower1&#45;&gt;This flower is glowing bright green.</title>
<path fill="none" stroke="black" d="M630.39,-105.34C716.14,-103.75 844.63,-96.83 885.39,-70.5 894.33,-64.73 900.92,-55.28 905.62,-46.05"/>
<polygon fill="black" stroke="black" points="909.09,-47.85 909.99,-37.3 902.71,-44.99 909.09,-47.85"/>
<text text-anchor="middle" x="1013.89" y="-57.2" font-family="Times,serif" font-size="14.00">idGlowingFlower1_prop_idExamineText</text>
</g>
<!-- true -->
<g id="node7" class="node">
<title>true</title>
<ellipse fill="none" stroke="black" cx="1163.39" cy="-18" rx="27" ry="18"/>
<text text-anchor="middle" x="1163.39" y="-12.95" font-family="Times,serif" font-size="14.00">true</text>
</g>
<!-- idGlowingFlower1&#45;&gt;true -->
<g id="edge6" class="edge">
<title>idGlowingFlower1&#45;&gt;true</title>
<path fill="none" stroke="black" d="M630.28,-104.66C779.87,-102.53 1088.36,-95.16 1130.39,-70.5 1140.04,-64.84 1147.34,-55.11 1152.59,-45.62"/>
<polygon fill="black" stroke="black" points="1156.05,-47.52 1157.32,-37 1149.77,-44.43 1156.05,-47.52"/>
<text text-anchor="middle" x="1266.77" y="-57.2" font-family="Times,serif" font-size="14.00">idGlowingFlower1_prop_idUnknownObject</text>
</g>
</g>
</svg>
