<?xml version="1.0" encoding="UTF-8" standalone="no"?>
<!DOCTYPE svg PUBLIC "-//W3C//DTD SVG 1.1//EN"
 "http://www.w3.org/Graphics/SVG/1.1/DTD/svg11.dtd">
<!-- Generated by graphviz version 8.1.0 (20230707.0739)
 -->
<!-- Pages: 1 -->
<svg width="2215pt" height="133pt"
 viewBox="0.00 0.00 2215.47 132.50" xmlns="http://www.w3.org/2000/svg" xmlns:xlink="http://www.w3.org/1999/xlink">
<g id="graph0" class="graph" transform="scale(1 1) rotate(0) translate(4 128.5)">
<polygon fill="white" stroke="none" points="-4,4 -4,-128.5 2211.47,-128.5 2211.47,4 -4,4"/>
<!-- idGrass1 -->
<g id="node1" class="node">
<title>idGrass1</title>
<ellipse fill="none" stroke="black" cx="1168" cy="-106.5" rx="43.67" ry="18"/>
<text text-anchor="middle" x="1168" y="-101.45" font-family="Times,serif" font-size="14.00">idGrass1</text>
</g>
<!-- idGrass1&#45;&gt;idGrass1 -->
<g id="edge9" class="edge">
<title>idGrass1&#45;&gt;idGrass1</title>
<path fill="none" stroke="black" d="M1207.45,-114.79C1219.87,-114.67 1229.67,-111.9 1229.67,-106.5 1229.67,-102.79 1225.04,-100.32 1218.11,-99.1"/>
<polygon fill="black" stroke="black" points="1218.7,-95.55 1208.45,-98.21 1218.12,-102.53 1218.7,-95.55"/>
<text text-anchor="middle" x="1247.3" y="-101.45" font-family="Times,serif" font-size="14.00">isNear</text>
</g>
<!-- tall -->
<g id="node2" class="node">
<title>tall</title>
<ellipse fill="none" stroke="black" cx="27" cy="-18" rx="27" ry="18"/>
<text text-anchor="middle" x="27" y="-12.95" font-family="Times,serif" font-size="14.00">tall</text>
</g>
<!-- idGrass1&#45;&gt;tall -->
<g id="edge1" class="edge">
<title>idGrass1&#45;&gt;tall</title>
<path fill="none" stroke="black" d="M1124.1,-105.1C925.48,-103.14 118.63,-93.79 70.5,-70.5 58.72,-64.8 48.94,-54.26 41.65,-44.19"/>
<polygon fill="black" stroke="black" points="44.13,-42.61 35.67,-36.23 38.31,-46.49 44.13,-42.61"/>
<text text-anchor="middle" x="137.75" y="-57.2" font-family="Times,serif" font-size="14.00">idGrass1_prop_idHeight</text>
</g>
<!-- green -->
<g id="node3" class="node">
<title>green</title>
<ellipse fill="none" stroke="black" cx="184" cy="-18" rx="31.39" ry="18"/>
<text text-anchor="middle" x="184" y="-12.95" font-family="Times,serif" font-size="14.00">green</text>
</g>
<!-- idGrass1&#45;&gt;green -->
<g id="edge2" class="edge">
<title>idGrass1&#45;&gt;green</title>
<path fill="none" stroke="black" d="M1124.19,-104.85C944.07,-102.07 268.22,-90.33 227.5,-70.5 215.9,-64.85 206.22,-54.51 198.96,-44.58"/>
<polygon fill="black" stroke="black" points="201.48,-43.05 192.99,-36.71 195.68,-46.96 201.48,-43.05"/>
<text text-anchor="middle" x="291.75" y="-57.2" font-family="Times,serif" font-size="14.00">idGrass1_prop_idColor</text>
</g>
<!-- grass -->
<g id="node4" class="node">
<title>grass</title>
<ellipse fill="none" stroke="black" cx="315" cy="-18" rx="29.86" ry="18"/>
<text text-anchor="middle" x="315" y="-12.95" font-family="Times,serif" font-size="14.00">grass</text>
</g>
<!-- idGrass1&#45;&gt;grass -->
<g id="edge3" class="edge">
<title>idGrass1&#45;&gt;grass</title>
<path fill="none" stroke="black" d="M1124.13,-104.95C969.99,-102.81 458.81,-93.99 389.25,-70.5 370.72,-64.24 352.62,-51.86 338.94,-40.81"/>
<polygon fill="black" stroke="black" points="341.53,-37.57 331.62,-33.82 337.02,-42.93 341.53,-37.57"/>
<text text-anchor="middle" x="475.88" y="-57.2" font-family="Times,serif" font-size="14.00">idGrass1_prop_idDisplayName</text>
</g>
<!-- This grass is waving in the light wind -->
<g id="node5" class="node">
<title>This grass is waving in the light wind</title>
<ellipse fill="none" stroke="black" cx="514" cy="-18" rx="151.15" ry="18"/>
<text text-anchor="middle" x="514" y="-12.95" font-family="Times,serif" font-size="14.00">This grass is waving in the light wind</text>
</g>
<!-- idGrass1&#45;&gt;This grass is waving in the light wind -->
<g id="edge4" class="edge">
<title>idGrass1&#45;&gt;This grass is waving in the light wind</title>
<path fill="none" stroke="black" d="M1124.17,-105.51C1008.37,-105.12 696.54,-101.15 598.75,-70.5 579.25,-64.39 559.61,-52.87 544.16,-42.28"/>
<polygon fill="black" stroke="black" points="546.75,-39.12 536.57,-36.19 542.71,-44.83 546.75,-39.12"/>
<text text-anchor="middle" x="684.12" y="-57.2" font-family="Times,serif" font-size="14.00">idGrass1_prop_idExamineText</text>
</g>
<!-- uncountable -->
<g id="node6" class="node">
<title>uncountable</title>
<ellipse fill="none" stroke="black" cx="739" cy="-18" rx="55.96" ry="18"/>
<text text-anchor="middle" x="739" y="-12.95" font-family="Times,serif" font-size="14.00">uncountable</text>
</g>
<!-- idGrass1&#45;&gt;uncountable -->
<g id="edge5" class="edge">
<title>idGrass1&#45;&gt;uncountable</title>
<path fill="none" stroke="black" d="M1124.04,-104.75C1038.88,-102.76 854.7,-95.58 797,-70.5 783.07,-64.44 770.15,-53.72 760.06,-43.62"/>
<polygon fill="black" stroke="black" points="763.02,-41.61 753.6,-36.76 757.94,-46.42 763.02,-41.61"/>
<text text-anchor="middle" x="878" y="-57.2" font-family="Times,serif" font-size="14.00">idGrass1_prop_idArticleType</text>
</g>
<!-- idClearing1 -->
<g id="node7" class="node">
<title>idClearing1</title>
<ellipse fill="none" stroke="black" cx="867" cy="-18" rx="54.42" ry="18"/>
<text text-anchor="middle" x="867" y="-12.95" font-family="Times,serif" font-size="14.00">idClearing1</text>
</g>
<!-- idGrass1&#45;&gt;idClearing1 -->
<g id="edge6" class="edge">
<title>idGrass1&#45;&gt;idClearing1</title>
<path fill="none" stroke="black" d="M1128.88,-98.21C1096.86,-91.9 1050.51,-82 1010.75,-70.5 976.73,-60.66 939.07,-47.07 910.83,-36.31"/>
<polygon fill="black" stroke="black" points="912.47,-32.81 901.88,-32.49 909.96,-39.35 912.47,-32.81"/>
<text text-anchor="middle" x="1028.62" y="-57.2" font-family="Times,serif" font-size="14.00">isNear</text>
</g>
<!-- idTheTrees1 -->
<g id="node8" class="node">
<title>idTheTrees1</title>
<ellipse fill="none" stroke="black" cx="997" cy="-18" rx="57.49" ry="18"/>
<text text-anchor="middle" x="997" y="-12.95" font-family="Times,serif" font-size="14.00">idTheTrees1</text>
</g>
<!-- idGrass1&#45;&gt;idTheTrees1 -->
<g id="edge7" class="edge">
<title>idGrass1&#45;&gt;idTheTrees1</title>
<path fill="none" stroke="black" d="M1134.77,-94.63C1117.15,-88.4 1095.36,-79.95 1076.75,-70.5 1059.99,-61.99 1042.34,-50.85 1027.92,-41.1"/>
<polygon fill="black" stroke="black" points="1030.17,-37.72 1019.95,-34.94 1026.21,-43.49 1030.17,-37.72"/>
<text text-anchor="middle" x="1105.12" y="-57.2" font-family="Times,serif" font-size="14.00">isInsideOf</text>
</g>
<!-- idPlayer -->
<g id="node9" class="node">
<title>idPlayer</title>
<ellipse fill="none" stroke="black" cx="1114" cy="-18" rx="41.63" ry="18"/>
<text text-anchor="middle" x="1114" y="-12.95" font-family="Times,serif" font-size="14.00">idPlayer</text>
</g>
<!-- idGrass1&#45;&gt;idPlayer -->
<g id="edge8" class="edge">
<title>idGrass1&#45;&gt;idPlayer</title>
<path fill="none" stroke="black" d="M1157.59,-88.82C1149.82,-76.38 1139.06,-59.14 1130.17,-44.91"/>
<polygon fill="black" stroke="black" points="1132.64,-43.26 1124.38,-36.63 1126.71,-46.96 1132.64,-43.26"/>
<text text-anchor="middle" x="1163.62" y="-57.2" font-family="Times,serif" font-size="14.00">isNear</text>
</g>
<!-- idBranch1 -->
<g id="node10" class="node">
<title>idBranch1</title>
<ellipse fill="none" stroke="black" cx="1223" cy="-18" rx="49.3" ry="18"/>
<text text-anchor="middle" x="1223" y="-12.95" font-family="Times,serif" font-size="14.00">idBranch1</text>
</g>
<!-- idGrass1&#45;&gt;idBranch1 -->
<g id="edge10" class="edge">
<title>idGrass1&#45;&gt;idBranch1</title>
<path fill="none" stroke="black" d="M1178.6,-88.82C1186.47,-76.46 1197.34,-59.36 1206.35,-45.18"/>
<polygon fill="black" stroke="black" points="1209.83,-47.24 1212.24,-36.92 1203.92,-43.48 1209.83,-47.24"/>
<text text-anchor="middle" x="1218.62" y="-57.2" font-family="Times,serif" font-size="14.00">isNear</text>
</g>
<!-- idGlowingArea1 -->
<g id="node11" class="node">
<title>idGlowingArea1</title>
<ellipse fill="none" stroke="black" cx="1363" cy="-18" rx="72.85" ry="18"/>
<text text-anchor="middle" x="1363" y="-12.95" font-family="Times,serif" font-size="14.00">idGlowingArea1</text>
</g>
<!-- idGrass1&#45;&gt;idGlowingArea1 -->
<g id="edge11" class="edge">
<title>idGrass1&#45;&gt;idGlowingArea1</title>
<path fill="none" stroke="black" d="M1196.77,-92.74C1228.96,-78.46 1281.49,-55.16 1318.88,-38.57"/>
<polygon fill="black" stroke="black" points="1319.79,-41.55 1327.51,-34.3 1316.95,-35.15 1319.79,-41.55"/>
<text text-anchor="middle" x="1310.38" y="-57.2" font-family="Times,serif" font-size="14.00">isNorthOf</text>
</g>
<!-- idGlowingGrass1 -->
<g id="node12" class="node">
<title>idGlowingGrass1</title>
<ellipse fill="none" stroke="black" cx="1530" cy="-18" rx="75.92" ry="18"/>
<text text-anchor="middle" x="1530" y="-12.95" font-family="Times,serif" font-size="14.00">idGlowingGrass1</text>
</g>
<!-- idGrass1&#45;&gt;idGlowingGrass1 -->
<g id="edge12" class="edge">
<title>idGrass1&#45;&gt;idGlowingGrass1</title>
<path fill="none" stroke="black" d="M1207.56,-98.35C1242.94,-91.76 1296.13,-81.38 1342,-70.5 1386.54,-59.93 1436.51,-46.15 1473.73,-35.51"/>
<polygon fill="black" stroke="black" points="1474.23,-38.72 1482.87,-32.59 1472.29,-31.99 1474.23,-38.72"/>
<text text-anchor="middle" x="1432.38" y="-57.2" font-family="Times,serif" font-size="14.00">isNorthOf</text>
</g>
<!-- idCave1 -->
<g id="node13" class="node">
<title>idCave1</title>
<ellipse fill="none" stroke="black" cx="1666" cy="-18" rx="41.63" ry="18"/>
<text text-anchor="middle" x="1666" y="-12.95" font-family="Times,serif" font-size="14.00">idCave1</text>
</g>
<!-- idGrass1&#45;&gt;idCave1 -->
<g id="edge13" class="edge">
<title>idGrass1&#45;&gt;idCave1</title>
<path fill="none" stroke="black" d="M1210.36,-101.93C1268,-96.74 1374.26,-86.01 1464,-70.5 1531.83,-58.77 1548.71,-54.57 1615,-36 1617.95,-35.17 1620.98,-34.28 1624.02,-33.35"/>
<polygon fill="black" stroke="black" points="1624.84,-36.45 1633.32,-30.09 1622.73,-29.77 1624.84,-36.45"/>
<text text-anchor="middle" x="1575.38" y="-57.2" font-family="Times,serif" font-size="14.00">isSouthOf</text>
</g>
<!-- idRockyArea1 -->
<g id="node14" class="node">
<title>idRockyArea1</title>
<ellipse fill="none" stroke="black" cx="1790" cy="-18" rx="64.66" ry="18"/>
<text text-anchor="middle" x="1790" y="-12.95" font-family="Times,serif" font-size="14.00">idRockyArea1</text>
</g>
<!-- idGrass1&#45;&gt;idRockyArea1 -->
<g id="edge14" class="edge">
<title>idGrass1&#45;&gt;idRockyArea1</title>
<path fill="none" stroke="black" d="M1211.98,-104.82C1291.45,-102.96 1464,-96.07 1607,-70.5 1652.69,-62.33 1703.4,-47.6 1739.83,-35.98"/>
<polygon fill="black" stroke="black" points="1740.74,-39.04 1749.18,-32.63 1738.59,-32.38 1740.74,-39.04"/>
<text text-anchor="middle" x="1702.25" y="-57.2" font-family="Times,serif" font-size="14.00">isEastOf</text>
</g>
<!-- idBottle1 -->
<g id="node15" class="node">
<title>idBottle1</title>
<ellipse fill="none" stroke="black" cx="1918" cy="-18" rx="45.21" ry="18"/>
<text text-anchor="middle" x="1918" y="-12.95" font-family="Times,serif" font-size="14.00">idBottle1</text>
</g>
<!-- idGrass1&#45;&gt;idBottle1 -->
<g id="edge15" class="edge">
<title>idGrass1&#45;&gt;idBottle1</title>
<path fill="none" stroke="black" d="M1211.95,-105.55C1306.92,-105.06 1538.14,-100.57 1729,-70.5 1779.82,-62.49 1836.58,-45.97 1874.51,-33.78"/>
<polygon fill="black" stroke="black" points="1875.26,-36.9 1883.69,-30.47 1873.09,-30.24 1875.26,-36.9"/>
<text text-anchor="middle" x="1826.25" y="-57.2" font-family="Times,serif" font-size="14.00">isEastOf</text>
</g>
<!-- idPebble1 -->
<g id="node16" class="node">
<title>idPebble1</title>
<ellipse fill="none" stroke="black" cx="2029" cy="-18" rx="47.77" ry="18"/>
<text text-anchor="middle" x="2029" y="-12.95" font-family="Times,serif" font-size="14.00">idPebble1</text>
</g>
<!-- idGrass1&#45;&gt;idPebble1 -->
<g id="edge16" class="edge">
<title>idGrass1&#45;&gt;idPebble1</title>
<path fill="none" stroke="black" d="M1211.64,-104.59C1342.27,-101.65 1728.82,-91.38 1853,-70.5 1899.29,-62.71 1950.64,-46.81 1985.87,-34.73"/>
<polygon fill="black" stroke="black" points="1986.51,-37.86 1994.81,-31.27 1984.22,-31.25 1986.51,-37.86"/>
<text text-anchor="middle" x="1945.25" y="-57.2" font-family="Times,serif" font-size="14.00">isEastOf</text>
</g>
<!-- idRockPile1 -->
<g id="node17" class="node">
<title>idRockPile1</title>
<ellipse fill="none" stroke="black" cx="2151" cy="-18" rx="56.47" ry="18"/>
<text text-anchor="middle" x="2151" y="-12.95" font-family="Times,serif" font-size="14.00">idRockPile1</text>
</g>
<!-- idGrass1&#45;&gt;idRockPile1 -->
<g id="edge17" class="edge">
<title>idGrass1&#45;&gt;idRockPile1</title>
<path fill="none" stroke="black" d="M1211.86,-104.96C1357.43,-102.94 1823.77,-94.7 1972,-70.5 2018.04,-62.98 2069.03,-47.58 2104.78,-35.57"/>
<polygon fill="black" stroke="black" points="2105.56,-38.66 2113.9,-32.13 2103.3,-32.04 2105.56,-38.66"/>
<text text-anchor="middle" x="2065.25" y="-57.2" font-family="Times,serif" font-size="14.00">isEastOf</text>
</g>
</g>
</svg>
