<?xml version="1.0" encoding="UTF-8" standalone="no"?>
<!DOCTYPE svg PUBLIC "-//W3C//DTD SVG 1.1//EN"
 "http://www.w3.org/Graphics/SVG/1.1/DTD/svg11.dtd">
<!-- Generated by graphviz version 8.1.0 (20230707.0739)
 -->
<!-- Pages: 1 -->
<svg width="2460pt" height="133pt"
 viewBox="0.00 0.00 2460.36 132.50" xmlns="http://www.w3.org/2000/svg" xmlns:xlink="http://www.w3.org/1999/xlink">
<g id="graph0" class="graph" transform="scale(1 1) rotate(0) translate(4 128.5)">
<polygon fill="white" stroke="none" points="-4,4 -4,-128.5 2456.36,-128.5 2456.36,4 -4,4"/>
<!-- idPebble1 -->
<g id="node1" class="node">
<title>idPebble1</title>
<ellipse fill="none" stroke="black" cx="1302.3" cy="-106.5" rx="47.77" ry="18"/>
<text text-anchor="middle" x="1302.3" y="-101.45" font-family="Times,serif" font-size="14.00">idPebble1</text>
</g>
<!-- idPebble1&#45;&gt;idPebble1 -->
<g id="edge8" class="edge">
<title>idPebble1&#45;&gt;idPebble1</title>
<path fill="none" stroke="black" d="M1345.31,-114.78C1358.11,-114.53 1368.07,-111.77 1368.07,-106.5 1368.07,-102.88 1363.36,-100.44 1356.26,-99.19"/>
<polygon fill="black" stroke="black" points="1356.58,-95.62 1346.31,-98.22 1355.96,-102.59 1356.58,-95.62"/>
<text text-anchor="middle" x="1385.69" y="-101.45" font-family="Times,serif" font-size="14.00">isNear</text>
</g>
<!-- grey -->
<g id="node2" class="node">
<title>grey</title>
<ellipse fill="none" stroke="black" cx="27.3" cy="-18" rx="27.3" ry="18"/>
<text text-anchor="middle" x="27.3" y="-12.95" font-family="Times,serif" font-size="14.00">grey</text>
</g>
<!-- idPebble1&#45;&gt;grey -->
<g id="edge1" class="edge">
<title>idPebble1&#45;&gt;grey</title>
<path fill="none" stroke="black" d="M1254.4,-105.04C1035.67,-102.84 139.94,-92.5 84.8,-70.5 69.92,-64.56 56.4,-52.94 46.21,-42.24"/>
<polygon fill="black" stroke="black" points="49.4,-40.44 40.1,-35.35 44.19,-45.12 49.4,-40.44"/>
<text text-anchor="middle" x="152.05" y="-57.2" font-family="Times,serif" font-size="14.00">idPebble1_prop_idColor</text>
</g>
<!-- pebble -->
<g id="node3" class="node">
<title>pebble</title>
<ellipse fill="none" stroke="black" cx="184.3" cy="-18" rx="35.49" ry="18"/>
<text text-anchor="middle" x="184.3" y="-12.95" font-family="Times,serif" font-size="14.00">pebble</text>
</g>
<!-- idPebble1&#45;&gt;pebble -->
<g id="edge2" class="edge">
<title>idPebble1&#45;&gt;pebble</title>
<path fill="none" stroke="black" d="M1254.24,-105.68C1060.6,-106.18 343.45,-105.62 248.55,-70.5 232.58,-64.59 217.56,-53.03 206.07,-42.36"/>
<polygon fill="black" stroke="black" points="208.96,-40.32 199.36,-35.84 204.07,-45.33 208.96,-40.32"/>
<text text-anchor="middle" x="338.17" y="-57.2" font-family="Times,serif" font-size="14.00">idPebble1_prop_idDisplayName</text>
</g>
<!-- smooth -->
<g id="node4" class="node">
<title>smooth</title>
<ellipse fill="none" stroke="black" cx="385.3" cy="-18" rx="38.56" ry="18"/>
<text text-anchor="middle" x="385.3" y="-12.95" font-family="Times,serif" font-size="14.00">smooth</text>
</g>
<!-- idPebble1&#45;&gt;smooth -->
<g id="edge3" class="edge">
<title>idPebble1&#45;&gt;smooth</title>
<path fill="none" stroke="black" d="M1254.31,-105.05C1087.03,-103.26 535.76,-95.5 460.55,-70.5 442.18,-64.4 424.2,-52.38 410.42,-41.49"/>
<polygon fill="black" stroke="black" points="412.96,-38.22 403.01,-34.57 408.51,-43.63 412.96,-38.22"/>
<text text-anchor="middle" x="541.17" y="-57.2" font-family="Times,serif" font-size="14.00">idPebble1_prop_idDescriptor</text>
</g>
<!-- This pebble is smooth. -->
<g id="node5" class="node">
<title>This pebble is smooth.</title>
<ellipse fill="none" stroke="black" cx="537.3" cy="-18" rx="95.88" ry="18"/>
<text text-anchor="middle" x="537.3" y="-12.95" font-family="Times,serif" font-size="14.00">This pebble is smooth.</text>
</g>
<!-- idPebble1&#45;&gt;This pebble is smooth. -->
<g id="edge4" class="edge">
<title>idPebble1&#45;&gt;This pebble is smooth.</title>
<path fill="none" stroke="black" d="M1254.69,-104.6C1128.89,-101.95 789.77,-92.88 680.05,-70.5 646.63,-63.68 610.5,-50.59 582.95,-39.31"/>
<polygon fill="black" stroke="black" points="584.42,-35.71 573.84,-35.1 581.72,-42.17 584.42,-35.71"/>
<text text-anchor="middle" x="768.42" y="-57.2" font-family="Times,serif" font-size="14.00">idPebble1_prop_idExamineText</text>
</g>
<!-- idRockyArea1 -->
<g id="node6" class="node">
<title>idRockyArea1</title>
<ellipse fill="none" stroke="black" cx="716.3" cy="-18" rx="64.66" ry="18"/>
<text text-anchor="middle" x="716.3" y="-12.95" font-family="Times,serif" font-size="14.00">idRockyArea1</text>
</g>
<!-- idPebble1&#45;&gt;idRockyArea1 -->
<g id="edge5" class="edge">
<title>idPebble1&#45;&gt;idRockyArea1</title>
<path fill="none" stroke="black" d="M1255.15,-102.91C1185.79,-98.65 1052.3,-88.76 940.05,-70.5 882.13,-61.08 816.84,-45.46 771.81,-33.89"/>
<polygon fill="black" stroke="black" points="772.94,-30.31 762.38,-31.2 771.18,-37.09 772.94,-30.31"/>
<text text-anchor="middle" x="957.92" y="-57.2" font-family="Times,serif" font-size="14.00">isNear</text>
</g>
<!-- idTheTrees1 -->
<g id="node7" class="node">
<title>idTheTrees1</title>
<ellipse fill="none" stroke="black" cx="856.3" cy="-18" rx="57.49" ry="18"/>
<text text-anchor="middle" x="856.3" y="-12.95" font-family="Times,serif" font-size="14.00">idTheTrees1</text>
</g>
<!-- idPebble1&#45;&gt;idTheTrees1 -->
<g id="edge6" class="edge">
<title>idPebble1&#45;&gt;idTheTrees1</title>
<path fill="none" stroke="black" d="M1256.35,-100.98C1205.02,-95.53 1119.6,-85.21 1047.05,-70.5 998.8,-60.72 944.7,-45.72 906.48,-34.43"/>
<polygon fill="black" stroke="black" points="907.72,-30.85 897.13,-31.35 905.72,-37.56 907.72,-30.85"/>
<text text-anchor="middle" x="1075.42" y="-57.2" font-family="Times,serif" font-size="14.00">isInsideOf</text>
</g>
<!-- idRockPile1 -->
<g id="node8" class="node">
<title>idRockPile1</title>
<ellipse fill="none" stroke="black" cx="988.3" cy="-18" rx="56.47" ry="18"/>
<text text-anchor="middle" x="988.3" y="-12.95" font-family="Times,serif" font-size="14.00">idRockPile1</text>
</g>
<!-- idPebble1&#45;&gt;idRockPile1 -->
<g id="edge7" class="edge">
<title>idPebble1&#45;&gt;idRockPile1</title>
<path fill="none" stroke="black" d="M1263.16,-95.89C1235.65,-89.05 1198.02,-79.51 1165.05,-70.5 1122.3,-58.82 1074,-44.69 1038.71,-34.18"/>
<polygon fill="black" stroke="black" points="1039.78,-30.55 1029.2,-31.05 1037.78,-37.26 1039.78,-30.55"/>
<text text-anchor="middle" x="1182.92" y="-57.2" font-family="Times,serif" font-size="14.00">isNear</text>
</g>
<!-- idGlowingArea1 -->
<g id="node9" class="node">
<title>idGlowingArea1</title>
<ellipse fill="none" stroke="black" cx="1135.3" cy="-18" rx="72.85" ry="18"/>
<text text-anchor="middle" x="1135.3" y="-12.95" font-family="Times,serif" font-size="14.00">idGlowingArea1</text>
</g>
<!-- idPebble1&#45;&gt;idGlowingArea1 -->
<g id="edge9" class="edge">
<title>idPebble1&#45;&gt;idGlowingArea1</title>
<path fill="none" stroke="black" d="M1275.09,-91.41C1247.99,-77.37 1206.07,-55.66 1175.2,-39.67"/>
<polygon fill="black" stroke="black" points="1177.09,-36.19 1166.6,-34.7 1173.87,-42.4 1177.09,-36.19"/>
<text text-anchor="middle" x="1259.8" y="-57.2" font-family="Times,serif" font-size="14.00">isWestOf</text>
</g>
<!-- idGlowingGrass1 -->
<g id="node10" class="node">
<title>idGlowingGrass1</title>
<ellipse fill="none" stroke="black" cx="1302.3" cy="-18" rx="75.92" ry="18"/>
<text text-anchor="middle" x="1302.3" y="-12.95" font-family="Times,serif" font-size="14.00">idGlowingGrass1</text>
</g>
<!-- idPebble1&#45;&gt;idGlowingGrass1 -->
<g id="edge10" class="edge">
<title>idPebble1&#45;&gt;idGlowingGrass1</title>
<path fill="none" stroke="black" d="M1302.3,-88.41C1302.3,-76.64 1302.3,-60.73 1302.3,-47.11"/>
<polygon fill="black" stroke="black" points="1305.8,-47.35 1302.3,-37.35 1298.8,-47.35 1305.8,-47.35"/>
<text text-anchor="middle" x="1327.8" y="-57.2" font-family="Times,serif" font-size="14.00">isWestOf</text>
</g>
<!-- idCave1 -->
<g id="node11" class="node">
<title>idCave1</title>
<ellipse fill="none" stroke="black" cx="1438.3" cy="-18" rx="41.63" ry="18"/>
<text text-anchor="middle" x="1438.3" y="-12.95" font-family="Times,serif" font-size="14.00">idCave1</text>
</g>
<!-- idPebble1&#45;&gt;idCave1 -->
<g id="edge11" class="edge">
<title>idPebble1&#45;&gt;idCave1</title>
<path fill="none" stroke="black" d="M1325.99,-90.43C1348.39,-76.18 1382.16,-54.7 1406.82,-39.02"/>
<polygon fill="black" stroke="black" points="1408.22,-41.64 1414.78,-33.32 1404.47,-35.73 1408.22,-41.64"/>
<text text-anchor="middle" x="1408.8" y="-57.2" font-family="Times,serif" font-size="14.00">isWestOf</text>
</g>
<!-- idClearing1 -->
<g id="node12" class="node">
<title>idClearing1</title>
<ellipse fill="none" stroke="black" cx="1552.3" cy="-18" rx="54.42" ry="18"/>
<text text-anchor="middle" x="1552.3" y="-12.95" font-family="Times,serif" font-size="14.00">idClearing1</text>
</g>
<!-- idPebble1&#45;&gt;idClearing1 -->
<g id="edge12" class="edge">
<title>idPebble1&#45;&gt;idClearing1</title>
<path fill="none" stroke="black" d="M1343.31,-96.89C1370.59,-90.69 1407.02,-81.5 1438.3,-70.5 1464.12,-61.42 1492.15,-48.8 1513.95,-38.32"/>
<polygon fill="black" stroke="black" points="1515.35,-41.05 1522.81,-33.53 1512.29,-34.75 1515.35,-41.05"/>
<text text-anchor="middle" x="1502.8" y="-57.2" font-family="Times,serif" font-size="14.00">isWestOf</text>
</g>
<!-- idBranch1 -->
<g id="node13" class="node">
<title>idBranch1</title>
<ellipse fill="none" stroke="black" cx="1674.3" cy="-18" rx="49.3" ry="18"/>
<text text-anchor="middle" x="1674.3" y="-12.95" font-family="Times,serif" font-size="14.00">idBranch1</text>
</g>
<!-- idPebble1&#45;&gt;idBranch1 -->
<g id="edge13" class="edge">
<title>idPebble1&#45;&gt;idBranch1</title>
<path fill="none" stroke="black" d="M1348.21,-101.2C1395.02,-96.2 1469.48,-86.5 1532.3,-70.5 1567.04,-61.65 1605.17,-47.56 1633.16,-36.36"/>
<polygon fill="black" stroke="black" points="1634.04,-39.38 1641.99,-32.38 1631.41,-32.89 1634.04,-39.38"/>
<text text-anchor="middle" x="1609.8" y="-57.2" font-family="Times,serif" font-size="14.00">isWestOf</text>
</g>
<!-- idGrass1 -->
<g id="node14" class="node">
<title>idGrass1</title>
<ellipse fill="none" stroke="black" cx="1785.3" cy="-18" rx="43.67" ry="18"/>
<text text-anchor="middle" x="1785.3" y="-12.95" font-family="Times,serif" font-size="14.00">idGrass1</text>
</g>
<!-- idPebble1&#45;&gt;idGrass1 -->
<g id="edge14" class="edge">
<title>idPebble1&#45;&gt;idGrass1</title>
<path fill="none" stroke="black" d="M1350.03,-104.08C1415.85,-101.31 1537.86,-93.32 1639.3,-70.5 1676.31,-62.17 1716.9,-47.37 1745.86,-35.76"/>
<polygon fill="black" stroke="black" points="1747.04,-38.66 1754.98,-31.65 1744.4,-32.18 1747.04,-38.66"/>
<text text-anchor="middle" x="1722.8" y="-57.2" font-family="Times,serif" font-size="14.00">isWestOf</text>
</g>
<!-- idPlayer -->
<g id="node15" class="node">
<title>idPlayer</title>
<ellipse fill="none" stroke="black" cx="1888.3" cy="-18" rx="41.63" ry="18"/>
<text text-anchor="middle" x="1888.3" y="-12.95" font-family="Times,serif" font-size="14.00">idPlayer</text>
</g>
<!-- idPebble1&#45;&gt;idPlayer -->
<g id="edge15" class="edge">
<title>idPebble1&#45;&gt;idPlayer</title>
<path fill="none" stroke="black" d="M1350.25,-106.2C1433.23,-106.44 1608.52,-102.62 1752.3,-70.5 1786.82,-62.79 1824.29,-48.09 1851.14,-36.37"/>
<polygon fill="black" stroke="black" points="1852.16,-39.3 1859.88,-32.04 1849.32,-32.9 1852.16,-39.3"/>
<text text-anchor="middle" x="1831.8" y="-57.2" font-family="Times,serif" font-size="14.00">isWestOf</text>
</g>
<!-- idPlayerBackside -->
<g id="node16" class="node">
<title>idPlayerBackside</title>
<ellipse fill="none" stroke="black" cx="2023.3" cy="-18" rx="75.41" ry="18"/>
<text text-anchor="middle" x="2023.3" y="-12.95" font-family="Times,serif" font-size="14.00">idPlayerBackside</text>
</g>
<!-- idPebble1&#45;&gt;idPlayerBackside -->
<g id="edge16" class="edge">
<title>idPebble1&#45;&gt;idPlayerBackside</title>
<path fill="none" stroke="black" d="M1350.05,-104.01C1466.72,-100.14 1763.81,-88.76 1861.3,-70.5 1900.56,-63.15 1943.59,-49.17 1975.43,-37.63"/>
<polygon fill="black" stroke="black" points="1976.18,-40.72 1984.35,-33.98 1973.76,-34.15 1976.18,-40.72"/>
<text text-anchor="middle" x="1950.8" y="-57.2" font-family="Times,serif" font-size="14.00">isWestOf</text>
</g>
<!-- idPlayerLeftHand -->
<g id="node17" class="node">
<title>idPlayerLeftHand</title>
<ellipse fill="none" stroke="black" cx="2193.3" cy="-18" rx="76.94" ry="18"/>
<text text-anchor="middle" x="2193.3" y="-12.95" font-family="Times,serif" font-size="14.00">idPlayerLeftHand</text>
</g>
<!-- idPebble1&#45;&gt;idPlayerLeftHand -->
<g id="edge17" class="edge">
<title>idPebble1&#45;&gt;idPlayerLeftHand</title>
<path fill="none" stroke="black" d="M1350.27,-106.07C1461.59,-106.73 1745.85,-104.59 1980.3,-70.5 2034.09,-62.68 2094.19,-47.54 2136.8,-35.7"/>
<polygon fill="black" stroke="black" points="2137.56,-38.84 2146.24,-32.76 2135.67,-32.1 2137.56,-38.84"/>
<text text-anchor="middle" x="2088.8" y="-57.2" font-family="Times,serif" font-size="14.00">isWestOf</text>
</g>
<!-- idPlayerRightHand -->
<g id="node18" class="node">
<title>idPlayerRightHand</title>
<ellipse fill="none" stroke="black" cx="2370.3" cy="-18" rx="82.06" ry="18"/>
<text text-anchor="middle" x="2370.3" y="-12.95" font-family="Times,serif" font-size="14.00">idPlayerRightHand</text>
</g>
<!-- idPebble1&#45;&gt;idPlayerRightHand -->
<g id="edge18" class="edge">
<title>idPebble1&#45;&gt;idPlayerRightHand</title>
<path fill="none" stroke="black" d="M1350.34,-106.09C1476.67,-107.08 1828.37,-106.11 2118.3,-70.5 2183.47,-62.49 2256.91,-46.69 2307.62,-34.7"/>
<polygon fill="black" stroke="black" points="2308.17,-37.92 2317.09,-32.2 2306.55,-31.12 2308.17,-37.92"/>
<text text-anchor="middle" x="2241.8" y="-57.2" font-family="Times,serif" font-size="14.00">isWestOf</text>
</g>
</g>
</svg>
