<?xml version="1.0" encoding="UTF-8" standalone="no"?>
<!DOCTYPE svg PUBLIC "-//W3C//DTD SVG 1.1//EN"
 "http://www.w3.org/Graphics/SVG/1.1/DTD/svg11.dtd">
<!-- Generated by graphviz version 8.1.0 (20230707.0739)
 -->
<!-- Pages: 1 -->
<svg width="1723pt" height="133pt"
 viewBox="0.00 0.00 1722.95 132.50" xmlns="http://www.w3.org/2000/svg" xmlns:xlink="http://www.w3.org/1999/xlink">
<g id="graph0" class="graph" transform="scale(1 1) rotate(0) translate(4 128.5)">
<polygon fill="white" stroke="none" points="-4,4 -4,-128.5 1718.95,-128.5 1718.95,4 -4,4"/>
<!-- idPlayer -->
<g id="node1" class="node">
<title>idPlayer</title>
<ellipse fill="none" stroke="black" cx="870.48" cy="-106.5" rx="41.63" ry="18"/>
<text text-anchor="middle" x="870.48" y="-101.45" font-family="Times,serif" font-size="14.00">idPlayer</text>
</g>
<!-- idPlayer&#45;&gt;idPlayer -->
<g id="edge5" class="edge">
<title>idPlayer&#45;&gt;idPlayer</title>
<path fill="none" stroke="black" d="M908.03,-114.8C920.32,-114.75 930.1,-111.99 930.1,-106.5 930.1,-102.73 925.48,-100.24 918.6,-99.04"/>
<polygon fill="black" stroke="black" points="919.28,-95.51 909.03,-98.2 918.73,-102.48 919.28,-95.51"/>
<text text-anchor="middle" x="947.73" y="-101.45" font-family="Times,serif" font-size="14.00">isNear</text>
</g>
<!-- Cannot remember -->
<g id="node2" class="node">
<title>Cannot remember</title>
<ellipse fill="none" stroke="black" cx="78.48" cy="-18" rx="78.48" ry="18"/>
<text text-anchor="middle" x="78.48" y="-12.95" font-family="Times,serif" font-size="14.00">Cannot remember</text>
</g>
<!-- idPlayer&#45;&gt;Cannot remember -->
<g id="edge1" class="edge">
<title>idPlayer&#45;&gt;Cannot remember</title>
<path fill="none" stroke="black" d="M828.46,-105.23C681.46,-104.06 195.63,-98.12 131.73,-70.5 118.63,-64.84 106.89,-54.41 97.78,-44.41"/>
<polygon fill="black" stroke="black" points="99.94,-42.56 90.78,-37.23 94.62,-47.11 99.94,-42.56"/>
<text text-anchor="middle" x="213.85" y="-57.2" font-family="Times,serif" font-size="14.00">idPlayer_prop_idProperName</text>
</g>
<!-- false -->
<g id="node3" class="node">
<title>false</title>
<ellipse fill="none" stroke="black" cx="264.48" cy="-18" rx="28.32" ry="18"/>
<text text-anchor="middle" x="264.48" y="-12.95" font-family="Times,serif" font-size="14.00">false</text>
</g>
<!-- idPlayer&#45;&gt;false -->
<g id="edge2" class="edge">
<title>idPlayer&#45;&gt;false</title>
<path fill="none" stroke="black" d="M828.72,-104.38C708.89,-100.94 369.48,-89.61 323.23,-70.5 308.24,-64.31 294.44,-52.67 283.99,-42.02"/>
<polygon fill="black" stroke="black" points="287.06,-40.11 277.68,-35.18 281.94,-44.88 287.06,-40.11"/>
<text text-anchor="middle" x="404.1" y="-57.2" font-family="Times,serif" font-size="14.00">idPlayer_prop_idBottleFound</text>
</g>
<!-- idClearing1 -->
<g id="node4" class="node">
<title>idClearing1</title>
<ellipse fill="none" stroke="black" cx="370.48" cy="-18" rx="54.42" ry="18"/>
<text text-anchor="middle" x="370.48" y="-12.95" font-family="Times,serif" font-size="14.00">idClearing1</text>
</g>
<!-- idPlayer&#45;&gt;idClearing1 -->
<g id="edge3" class="edge">
<title>idPlayer&#45;&gt;idClearing1</title>
<path fill="none" stroke="black" d="M829.22,-103.09C768.53,-99.05 651.84,-89.45 554.23,-70.5 507.46,-61.42 455.25,-46.29 418.47,-34.77"/>
<polygon fill="black" stroke="black" points="419.64,-31.16 409.05,-31.48 417.53,-37.83 419.64,-31.16"/>
<text text-anchor="middle" x="572.1" y="-57.2" font-family="Times,serif" font-size="14.00">isNear</text>
</g>
<!-- idTheTrees1 -->
<g id="node5" class="node">
<title>idTheTrees1</title>
<ellipse fill="none" stroke="black" cx="500.48" cy="-18" rx="57.49" ry="18"/>
<text text-anchor="middle" x="500.48" y="-12.95" font-family="Times,serif" font-size="14.00">idTheTrees1</text>
</g>
<!-- idPlayer&#45;&gt;idTheTrees1 -->
<g id="edge4" class="edge">
<title>idPlayer&#45;&gt;idTheTrees1</title>
<path fill="none" stroke="black" d="M830.33,-101.5C785.11,-96.47 709.65,-86.51 646.23,-70.5 611.35,-61.7 573.04,-47.99 544.45,-36.93"/>
<polygon fill="black" stroke="black" points="545.97,-33.38 535.38,-32.99 543.42,-39.9 545.97,-33.38"/>
<text text-anchor="middle" x="674.6" y="-57.2" font-family="Times,serif" font-size="14.00">isInsideOf</text>
</g>
<!-- idGrass1 -->
<g id="node6" class="node">
<title>idGrass1</title>
<ellipse fill="none" stroke="black" cx="619.48" cy="-18" rx="43.67" ry="18"/>
<text text-anchor="middle" x="619.48" y="-12.95" font-family="Times,serif" font-size="14.00">idGrass1</text>
</g>
<!-- idPlayer&#45;&gt;idGrass1 -->
<g id="edge6" class="edge">
<title>idPlayer&#45;&gt;idGrass1</title>
<path fill="none" stroke="black" d="M835.44,-96.35C811.07,-89.76 777.94,-80.32 749.23,-70.5 718.59,-60.03 684.6,-46.46 659.09,-35.88"/>
<polygon fill="black" stroke="black" points="660.64,-32.32 650.06,-31.69 657.94,-38.77 660.64,-32.32"/>
<text text-anchor="middle" x="767.1" y="-57.2" font-family="Times,serif" font-size="14.00">isNear</text>
</g>
<!-- idBranch1 -->
<g id="node7" class="node">
<title>idBranch1</title>
<ellipse fill="none" stroke="black" cx="730.48" cy="-18" rx="49.3" ry="18"/>
<text text-anchor="middle" x="730.48" y="-12.95" font-family="Times,serif" font-size="14.00">idBranch1</text>
</g>
<!-- idPlayer&#45;&gt;idBranch1 -->
<g id="edge7" class="edge">
<title>idPlayer&#45;&gt;idBranch1</title>
<path fill="none" stroke="black" d="M847.36,-91.22C824.53,-77.11 789.4,-55.4 763.61,-39.47"/>
<polygon fill="black" stroke="black" points="765.92,-36.16 755.57,-33.89 762.24,-42.12 765.92,-36.16"/>
<text text-anchor="middle" x="831.1" y="-57.2" font-family="Times,serif" font-size="14.00">isNear</text>
</g>
<!-- idGlowingArea1 -->
<g id="node8" class="node">
<title>idGlowingArea1</title>
<ellipse fill="none" stroke="black" cx="870.48" cy="-18" rx="72.85" ry="18"/>
<text text-anchor="middle" x="870.48" y="-12.95" font-family="Times,serif" font-size="14.00">idGlowingArea1</text>
</g>
<!-- idPlayer&#45;&gt;idGlowingArea1 -->
<g id="edge8" class="edge">
<title>idPlayer&#45;&gt;idGlowingArea1</title>
<path fill="none" stroke="black" d="M870.48,-88.41C870.48,-76.64 870.48,-60.73 870.48,-47.11"/>
<polygon fill="black" stroke="black" points="873.98,-47.35 870.48,-37.35 866.98,-47.35 873.98,-47.35"/>
<text text-anchor="middle" x="897.85" y="-57.2" font-family="Times,serif" font-size="14.00">isNorthOf</text>
</g>
<!-- idGlowingGrass1 -->
<g id="node9" class="node">
<title>idGlowingGrass1</title>
<ellipse fill="none" stroke="black" cx="1037.48" cy="-18" rx="75.92" ry="18"/>
<text text-anchor="middle" x="1037.48" y="-12.95" font-family="Times,serif" font-size="14.00">idGlowingGrass1</text>
</g>
<!-- idPlayer&#45;&gt;idGlowingGrass1 -->
<g id="edge9" class="edge">
<title>idPlayer&#45;&gt;idGlowingGrass1</title>
<path fill="none" stroke="black" d="M896.57,-91.98C923.47,-78.05 965.79,-56.13 997.03,-39.95"/>
<polygon fill="black" stroke="black" points="998.48,-42.62 1005.75,-34.92 995.26,-36.41 998.48,-42.62"/>
<text text-anchor="middle" x="996.85" y="-57.2" font-family="Times,serif" font-size="14.00">isNorthOf</text>
</g>
<!-- idCave1 -->
<g id="node10" class="node">
<title>idCave1</title>
<ellipse fill="none" stroke="black" cx="1173.48" cy="-18" rx="41.63" ry="18"/>
<text text-anchor="middle" x="1173.48" y="-12.95" font-family="Times,serif" font-size="14.00">idCave1</text>
</g>
<!-- idPlayer&#45;&gt;idCave1 -->
<g id="edge10" class="edge">
<title>idPlayer&#45;&gt;idCave1</title>
<path fill="none" stroke="black" d="M908.15,-98.51C940.37,-92.22 987.84,-82.17 1028.48,-70.5 1064.49,-60.16 1104.58,-45.69 1133.45,-34.72"/>
<polygon fill="black" stroke="black" points="1134.47,-37.69 1142.56,-30.85 1131.97,-31.16 1134.47,-37.69"/>
<text text-anchor="middle" x="1104.85" y="-57.2" font-family="Times,serif" font-size="14.00">isSouthOf</text>
</g>
<!-- idRockyArea1 -->
<g id="node11" class="node">
<title>idRockyArea1</title>
<ellipse fill="none" stroke="black" cx="1297.48" cy="-18" rx="64.66" ry="18"/>
<text text-anchor="middle" x="1297.48" y="-12.95" font-family="Times,serif" font-size="14.00">idRockyArea1</text>
</g>
<!-- idPlayer&#45;&gt;idRockyArea1 -->
<g id="edge11" class="edge">
<title>idPlayer&#45;&gt;idRockyArea1</title>
<path fill="none" stroke="black" d="M911.43,-102.4C964.01,-97.9 1057.84,-88.1 1136.48,-70.5 1175.2,-61.83 1217.93,-47.95 1249.64,-36.79"/>
<polygon fill="black" stroke="black" points="1250.7,-39.77 1258.94,-33.11 1248.35,-33.17 1250.7,-39.77"/>
<text text-anchor="middle" x="1218.73" y="-57.2" font-family="Times,serif" font-size="14.00">isEastOf</text>
</g>
<!-- idBottle1 -->
<g id="node12" class="node">
<title>idBottle1</title>
<ellipse fill="none" stroke="black" cx="1425.48" cy="-18" rx="45.21" ry="18"/>
<text text-anchor="middle" x="1425.48" y="-12.95" font-family="Times,serif" font-size="14.00">idBottle1</text>
</g>
<!-- idPlayer&#45;&gt;idBottle1 -->
<g id="edge12" class="edge">
<title>idPlayer&#45;&gt;idBottle1</title>
<path fill="none" stroke="black" d="M912.14,-103.98C981.7,-100.92 1125.66,-92.32 1245.48,-70.5 1293.06,-61.83 1346.15,-45.84 1382.26,-33.97"/>
<polygon fill="black" stroke="black" points="1383.05,-37.06 1391.44,-30.58 1380.84,-30.42 1383.05,-37.06"/>
<text text-anchor="middle" x="1339.73" y="-57.2" font-family="Times,serif" font-size="14.00">isEastOf</text>
</g>
<!-- idPebble1 -->
<g id="node13" class="node">
<title>idPebble1</title>
<ellipse fill="none" stroke="black" cx="1536.48" cy="-18" rx="47.77" ry="18"/>
<text text-anchor="middle" x="1536.48" y="-12.95" font-family="Times,serif" font-size="14.00">idPebble1</text>
</g>
<!-- idPlayer&#45;&gt;idPebble1 -->
<g id="edge13" class="edge">
<title>idPlayer&#45;&gt;idPebble1</title>
<path fill="none" stroke="black" d="M912.35,-105.69C998.25,-105.38 1200.3,-101.14 1366.48,-70.5 1410.59,-62.37 1459.45,-46.85 1493.43,-34.97"/>
<polygon fill="black" stroke="black" points="1494.22,-38.05 1502.48,-31.41 1491.88,-31.45 1494.22,-38.05"/>
<text text-anchor="middle" x="1456.73" y="-57.2" font-family="Times,serif" font-size="14.00">isEastOf</text>
</g>
<!-- idRockPile1 -->
<g id="node14" class="node">
<title>idRockPile1</title>
<ellipse fill="none" stroke="black" cx="1658.48" cy="-18" rx="56.47" ry="18"/>
<text text-anchor="middle" x="1658.48" y="-12.95" font-family="Times,serif" font-size="14.00">idRockPile1</text>
</g>
<!-- idPlayer&#45;&gt;idRockPile1 -->
<g id="edge14" class="edge">
<title>idPlayer&#45;&gt;idRockPile1</title>
<path fill="none" stroke="black" d="M912.06,-104.37C1031.35,-100.92 1373.19,-89.61 1483.48,-70.5 1528.02,-62.78 1577.29,-47.66 1612.18,-35.79"/>
<polygon fill="black" stroke="black" points="1613.21,-38.79 1621.52,-32.22 1610.92,-32.17 1613.21,-38.79"/>
<text text-anchor="middle" x="1575.73" y="-57.2" font-family="Times,serif" font-size="14.00">isEastOf</text>
</g>
</g>
</svg>
