<?xml version="1.0" encoding="UTF-8" standalone="no"?>
<!DOCTYPE svg PUBLIC "-//W3C//DTD SVG 1.1//EN"
 "http://www.w3.org/Graphics/SVG/1.1/DTD/svg11.dtd">
<!-- Generated by graphviz version 8.1.0 (20230707.0739)
 -->
<!-- Pages: 1 -->
<svg width="2764pt" height="133pt"
 viewBox="0.00 0.00 2764.36 132.50" xmlns="http://www.w3.org/2000/svg" xmlns:xlink="http://www.w3.org/1999/xlink">
<g id="graph0" class="graph" transform="scale(1 1) rotate(0) translate(4 128.5)">
<polygon fill="white" stroke="none" points="-4,4 -4,-128.5 2760.36,-128.5 2760.36,4 -4,4"/>
<!-- idRockPile1 -->
<g id="node1" class="node">
<title>idRockPile1</title>
<ellipse fill="none" stroke="black" cx="1439.3" cy="-106.5" rx="56.47" ry="18"/>
<text text-anchor="middle" x="1439.3" y="-101.45" font-family="Times,serif" font-size="14.00">idRockPile1</text>
</g>
<!-- idRockPile1&#45;&gt;idRockPile1 -->
<g id="edge9" class="edge">
<title>idRockPile1&#45;&gt;idRockPile1</title>
<path fill="none" stroke="black" d="M1490.11,-114.72C1503.57,-114.25 1513.77,-111.51 1513.77,-106.5 1513.77,-102.98 1508.73,-100.57 1501.06,-99.3"/>
<polygon fill="black" stroke="black" points="1501.4,-95.72 1491.11,-98.28 1500.75,-102.69 1501.4,-95.72"/>
<text text-anchor="middle" x="1531.39" y="-101.45" font-family="Times,serif" font-size="14.00">isNear</text>
</g>
<!-- grey -->
<g id="node2" class="node">
<title>grey</title>
<ellipse fill="none" stroke="black" cx="27.3" cy="-18" rx="27.3" ry="18"/>
<text text-anchor="middle" x="27.3" y="-12.95" font-family="Times,serif" font-size="14.00">grey</text>
</g>
<!-- idRockPile1&#45;&gt;grey -->
<g id="edge1" class="edge">
<title>idRockPile1&#45;&gt;grey</title>
<path fill="none" stroke="black" d="M1382.6,-105.45C1130.89,-105.04 124.23,-101.45 65.05,-70.5 54.44,-64.95 46.06,-54.92 39.92,-45.17"/>
<polygon fill="black" stroke="black" points="42.52,-43.66 34.53,-36.7 36.43,-47.12 42.52,-43.66"/>
<text text-anchor="middle" x="138.42" y="-57.2" font-family="Times,serif" font-size="14.00">idRockPile1_prop_idColor</text>
</g>
<!-- boulder -->
<g id="node3" class="node">
<title>boulder</title>
<ellipse fill="none" stroke="black" cx="196.3" cy="-18" rx="39.07" ry="18"/>
<text text-anchor="middle" x="196.3" y="-12.95" font-family="Times,serif" font-size="14.00">boulder</text>
</g>
<!-- idRockPile1&#45;&gt;boulder -->
<g id="edge2" class="edge">
<title>idRockPile1&#45;&gt;boulder</title>
<path fill="none" stroke="black" d="M1382.59,-105.28C1150.5,-104.19 282.84,-98.26 231.8,-70.5 221.74,-65.03 213.95,-55.34 208.26,-45.82"/>
<polygon fill="black" stroke="black" points="210.89,-44.32 203.09,-37.16 204.72,-47.63 210.89,-44.32"/>
<text text-anchor="middle" x="327.55" y="-57.2" font-family="Times,serif" font-size="14.00">idRockPile1_prop_idDisplayName</text>
</g>
<!-- bumpy -->
<g id="node4" class="node">
<title>bumpy</title>
<ellipse fill="none" stroke="black" cx="410.3" cy="-18" rx="37.02" ry="18"/>
<text text-anchor="middle" x="410.3" y="-12.95" font-family="Times,serif" font-size="14.00">bumpy</text>
</g>
<!-- idRockPile1&#45;&gt;bumpy -->
<g id="edge3" class="edge">
<title>idRockPile1&#45;&gt;bumpy</title>
<path fill="none" stroke="black" d="M1382.58,-104.99C1177.25,-102.95 482.57,-94.31 441.8,-70.5 432.36,-64.99 425.38,-55.42 420.43,-46.02"/>
<polygon fill="black" stroke="black" points="423.2,-44.68 415.83,-37.08 416.85,-47.62 423.2,-44.68"/>
<text text-anchor="middle" x="528.55" y="-57.2" font-family="Times,serif" font-size="14.00">idRockPile1_prop_idDescriptor</text>
</g>
<!-- yes -->
<g id="node5" class="node">
<title>yes</title>
<ellipse fill="none" stroke="black" cx="606.3" cy="-18" rx="27" ry="18"/>
<text text-anchor="middle" x="606.3" y="-12.95" font-family="Times,serif" font-size="14.00">yes</text>
</g>
<!-- idRockPile1&#45;&gt;yes -->
<g id="edge4" class="edge">
<title>idRockPile1&#45;&gt;yes</title>
<path fill="none" stroke="black" d="M1382.91,-104.6C1204.83,-101.55 664.31,-90.68 632.8,-70.5 624.12,-64.95 618.15,-55.59 614.1,-46.36"/>
<polygon fill="black" stroke="black" points="617.08,-45.36 610.31,-37.21 610.53,-47.81 617.08,-45.36"/>
<text text-anchor="middle" x="722.55" y="-57.2" font-family="Times,serif" font-size="14.00">idRockPile1_prop_idImmovable</text>
</g>
<!-- This boulder is bumpy. -->
<g id="node6" class="node">
<title>This boulder is bumpy.</title>
<ellipse fill="none" stroke="black" cx="748.3" cy="-18" rx="97.41" ry="18"/>
<text text-anchor="middle" x="748.3" y="-12.95" font-family="Times,serif" font-size="14.00">This boulder is bumpy.</text>
</g>
<!-- idRockPile1&#45;&gt;This boulder is bumpy. -->
<g id="edge5" class="edge">
<title>idRockPile1&#45;&gt;This boulder is bumpy.</title>
<path fill="none" stroke="black" d="M1382.69,-104.76C1256.84,-102.69 957.23,-95.23 859.3,-70.5 833.69,-64.03 806.78,-51.7 785.87,-40.73"/>
<polygon fill="black" stroke="black" points="787.88,-37.3 777.41,-35.65 784.56,-43.46 787.88,-37.3"/>
<text text-anchor="middle" x="953.8" y="-57.2" font-family="Times,serif" font-size="14.00">idRockPile1_prop_idExamineText</text>
</g>
<!-- idRockyArea1 -->
<g id="node7" class="node">
<title>idRockyArea1</title>
<ellipse fill="none" stroke="black" cx="928.3" cy="-18" rx="64.66" ry="18"/>
<text text-anchor="middle" x="928.3" y="-12.95" font-family="Times,serif" font-size="14.00">idRockyArea1</text>
</g>
<!-- idRockPile1&#45;&gt;idRockyArea1 -->
<g id="edge6" class="edge">
<title>idRockPile1&#45;&gt;idRockyArea1</title>
<path fill="none" stroke="black" d="M1384.3,-101.99C1320.56,-97.34 1212.56,-87.65 1121.05,-70.5 1072.81,-61.46 1018.93,-46.65 980.42,-35.23"/>
<polygon fill="black" stroke="black" points="981.57,-31.62 970.99,-32.1 979.56,-38.33 981.57,-31.62"/>
<text text-anchor="middle" x="1138.92" y="-57.2" font-family="Times,serif" font-size="14.00">isNear</text>
</g>
<!-- idBottle1 -->
<g id="node8" class="node">
<title>idBottle1</title>
<ellipse fill="none" stroke="black" cx="1056.3" cy="-18" rx="45.21" ry="18"/>
<text text-anchor="middle" x="1056.3" y="-12.95" font-family="Times,serif" font-size="14.00">idBottle1</text>
</g>
<!-- idRockPile1&#45;&gt;idBottle1 -->
<g id="edge7" class="edge">
<title>idRockPile1&#45;&gt;idBottle1</title>
<path fill="none" stroke="black" d="M1386.8,-99.39C1341.91,-93.64 1275.75,-83.9 1219.05,-70.5 1177.67,-60.72 1131.55,-45.73 1099,-34.44"/>
<polygon fill="black" stroke="black" points="1100.53,-30.91 1089.94,-30.91 1098.22,-37.52 1100.53,-30.91"/>
<text text-anchor="middle" x="1236.92" y="-57.2" font-family="Times,serif" font-size="14.00">isNear</text>
</g>
<!-- idTheTrees1 -->
<g id="node9" class="node">
<title>idTheTrees1</title>
<ellipse fill="none" stroke="black" cx="1177.3" cy="-18" rx="57.49" ry="18"/>
<text text-anchor="middle" x="1177.3" y="-12.95" font-family="Times,serif" font-size="14.00">idTheTrees1</text>
</g>
<!-- idRockPile1&#45;&gt;idTheTrees1 -->
<g id="edge8" class="edge">
<title>idRockPile1&#45;&gt;idTheTrees1</title>
<path fill="none" stroke="black" d="M1392.64,-95.92C1364.85,-89.72 1329.07,-80.89 1298.05,-70.5 1270.56,-61.3 1240.58,-48.53 1217.37,-38.01"/>
<polygon fill="black" stroke="black" points="1219.09,-34.49 1208.54,-33.5 1216.18,-40.85 1219.09,-34.49"/>
<text text-anchor="middle" x="1326.42" y="-57.2" font-family="Times,serif" font-size="14.00">isInsideOf</text>
</g>
<!-- idPebble1 -->
<g id="node10" class="node">
<title>idPebble1</title>
<ellipse fill="none" stroke="black" cx="1300.3" cy="-18" rx="47.77" ry="18"/>
<text text-anchor="middle" x="1300.3" y="-12.95" font-family="Times,serif" font-size="14.00">idPebble1</text>
</g>
<!-- idRockPile1&#45;&gt;idPebble1 -->
<g id="edge10" class="edge">
<title>idRockPile1&#45;&gt;idPebble1</title>
<path fill="none" stroke="black" d="M1414.45,-90.04C1391.73,-75.9 1357.99,-54.9 1333.08,-39.4"/>
<polygon fill="black" stroke="black" points="1335.34,-36.07 1325,-33.75 1331.64,-42.01 1335.34,-36.07"/>
<text text-anchor="middle" x="1399.92" y="-57.2" font-family="Times,serif" font-size="14.00">isNear</text>
</g>
<!-- idGlowingArea1 -->
<g id="node11" class="node">
<title>idGlowingArea1</title>
<ellipse fill="none" stroke="black" cx="1439.3" cy="-18" rx="72.85" ry="18"/>
<text text-anchor="middle" x="1439.3" y="-12.95" font-family="Times,serif" font-size="14.00">idGlowingArea1</text>
</g>
<!-- idRockPile1&#45;&gt;idGlowingArea1 -->
<g id="edge11" class="edge">
<title>idRockPile1&#45;&gt;idGlowingArea1</title>
<path fill="none" stroke="black" d="M1439.3,-88.41C1439.3,-76.64 1439.3,-60.73 1439.3,-47.11"/>
<polygon fill="black" stroke="black" points="1442.8,-47.35 1439.3,-37.35 1435.8,-47.35 1442.8,-47.35"/>
<text text-anchor="middle" x="1464.8" y="-57.2" font-family="Times,serif" font-size="14.00">isWestOf</text>
</g>
<!-- idGlowingGrass1 -->
<g id="node12" class="node">
<title>idGlowingGrass1</title>
<ellipse fill="none" stroke="black" cx="1606.3" cy="-18" rx="75.92" ry="18"/>
<text text-anchor="middle" x="1606.3" y="-12.95" font-family="Times,serif" font-size="14.00">idGlowingGrass1</text>
</g>
<!-- idRockPile1&#45;&gt;idGlowingGrass1 -->
<g id="edge12" class="edge">
<title>idRockPile1&#45;&gt;idGlowingGrass1</title>
<path fill="none" stroke="black" d="M1468,-90.63C1495.1,-76.6 1535.98,-55.42 1566.27,-39.73"/>
<polygon fill="black" stroke="black" points="1567.43,-42.55 1574.7,-34.85 1564.21,-36.34 1567.43,-42.55"/>
<text text-anchor="middle" x="1563.8" y="-57.2" font-family="Times,serif" font-size="14.00">isWestOf</text>
</g>
<!-- idCave1 -->
<g id="node13" class="node">
<title>idCave1</title>
<ellipse fill="none" stroke="black" cx="1742.3" cy="-18" rx="41.63" ry="18"/>
<text text-anchor="middle" x="1742.3" y="-12.95" font-family="Times,serif" font-size="14.00">idCave1</text>
</g>
<!-- idRockPile1&#45;&gt;idCave1 -->
<g id="edge13" class="edge">
<title>idRockPile1&#45;&gt;idCave1</title>
<path fill="none" stroke="black" d="M1486.47,-96.17C1517.13,-89.77 1557.84,-80.62 1593.3,-70.5 1630.49,-59.88 1672.03,-45.29 1701.78,-34.35"/>
<polygon fill="black" stroke="black" points="1702.63,-37.4 1710.79,-30.64 1700.2,-30.83 1702.63,-37.4"/>
<text text-anchor="middle" x="1668.8" y="-57.2" font-family="Times,serif" font-size="14.00">isWestOf</text>
</g>
<!-- idClearing1 -->
<g id="node14" class="node">
<title>idClearing1</title>
<ellipse fill="none" stroke="black" cx="1856.3" cy="-18" rx="54.42" ry="18"/>
<text text-anchor="middle" x="1856.3" y="-12.95" font-family="Times,serif" font-size="14.00">idClearing1</text>
</g>
<!-- idRockPile1&#45;&gt;idClearing1 -->
<g id="edge14" class="edge">
<title>idRockPile1&#45;&gt;idClearing1</title>
<path fill="none" stroke="black" d="M1493.63,-101.04C1546.39,-96.03 1628.52,-86.45 1698.3,-70.5 1737.21,-61.61 1780.21,-47.28 1811.52,-36"/>
<polygon fill="black" stroke="black" points="1812.47,-39.01 1820.66,-32.3 1810.07,-32.43 1812.47,-39.01"/>
<text text-anchor="middle" x="1781.8" y="-57.2" font-family="Times,serif" font-size="14.00">isWestOf</text>
</g>
<!-- idBranch1 -->
<g id="node15" class="node">
<title>idBranch1</title>
<ellipse fill="none" stroke="black" cx="1978.3" cy="-18" rx="49.3" ry="18"/>
<text text-anchor="middle" x="1978.3" y="-12.95" font-family="Times,serif" font-size="14.00">idBranch1</text>
</g>
<!-- idRockPile1&#45;&gt;idBranch1 -->
<g id="edge15" class="edge">
<title>idRockPile1&#45;&gt;idBranch1</title>
<path fill="none" stroke="black" d="M1495.59,-103.8C1568.9,-100.76 1700.76,-92.5 1811.3,-70.5 1853.99,-62 1901.28,-46.85 1934.61,-35.18"/>
<polygon fill="black" stroke="black" points="1935.66,-38.16 1943.92,-31.52 1933.32,-31.57 1935.66,-38.16"/>
<text text-anchor="middle" x="1902.8" y="-57.2" font-family="Times,serif" font-size="14.00">isWestOf</text>
</g>
<!-- idGrass1 -->
<g id="node16" class="node">
<title>idGrass1</title>
<ellipse fill="none" stroke="black" cx="2089.3" cy="-18" rx="43.67" ry="18"/>
<text text-anchor="middle" x="2089.3" y="-12.95" font-family="Times,serif" font-size="14.00">idGrass1</text>
</g>
<!-- idRockPile1&#45;&gt;idGrass1 -->
<g id="edge16" class="edge">
<title>idRockPile1&#45;&gt;idGrass1</title>
<path fill="none" stroke="black" d="M1496.08,-105.98C1588.44,-105.75 1776.53,-101.09 1932.3,-70.5 1973.01,-62.5 2017.84,-47.1 2049.14,-35.22"/>
<polygon fill="black" stroke="black" points="2050.13,-38.2 2058.2,-31.34 2047.61,-31.67 2050.13,-38.2"/>
<text text-anchor="middle" x="2019.8" y="-57.2" font-family="Times,serif" font-size="14.00">isWestOf</text>
</g>
<!-- idPlayer -->
<g id="node17" class="node">
<title>idPlayer</title>
<ellipse fill="none" stroke="black" cx="2192.3" cy="-18" rx="41.63" ry="18"/>
<text text-anchor="middle" x="2192.3" y="-12.95" font-family="Times,serif" font-size="14.00">idPlayer</text>
</g>
<!-- idRockPile1&#45;&gt;idPlayer -->
<g id="edge17" class="edge">
<title>idRockPile1&#45;&gt;idPlayer</title>
<path fill="none" stroke="black" d="M1495.74,-104.34C1626,-101.31 1944.46,-91.92 2049.3,-70.5 2086.14,-62.97 2126.27,-47.87 2154.62,-35.96"/>
<polygon fill="black" stroke="black" points="2155.68,-38.88 2163.5,-31.73 2152.93,-32.44 2155.68,-38.88"/>
<text text-anchor="middle" x="2131.8" y="-57.2" font-family="Times,serif" font-size="14.00">isWestOf</text>
</g>
<!-- idPlayerBackside -->
<g id="node18" class="node">
<title>idPlayerBackside</title>
<ellipse fill="none" stroke="black" cx="2327.3" cy="-18" rx="75.41" ry="18"/>
<text text-anchor="middle" x="2327.3" y="-12.95" font-family="Times,serif" font-size="14.00">idPlayerBackside</text>
</g>
<!-- idRockPile1&#45;&gt;idPlayerBackside -->
<g id="edge18" class="edge">
<title>idRockPile1&#45;&gt;idPlayerBackside</title>
<path fill="none" stroke="black" d="M1495.79,-104.6C1642.64,-101.97 2033.77,-93 2161.3,-70.5 2201.79,-63.36 2246.2,-49.23 2278.89,-37.57"/>
<polygon fill="black" stroke="black" points="2279.86,-40.58 2288.07,-33.89 2277.48,-34 2279.86,-40.58"/>
<text text-anchor="middle" x="2251.8" y="-57.2" font-family="Times,serif" font-size="14.00">isWestOf</text>
</g>
<!-- idPlayerLeftHand -->
<g id="node19" class="node">
<title>idPlayerLeftHand</title>
<ellipse fill="none" stroke="black" cx="2497.3" cy="-18" rx="76.94" ry="18"/>
<text text-anchor="middle" x="2497.3" y="-12.95" font-family="Times,serif" font-size="14.00">idPlayerLeftHand</text>
</g>
<!-- idRockPile1&#45;&gt;idPlayerLeftHand -->
<g id="edge19" class="edge">
<title>idRockPile1&#45;&gt;idPlayerLeftHand</title>
<path fill="none" stroke="black" d="M1495.76,-104.57C1658.9,-101.66 2128.95,-91.63 2281.3,-70.5 2336.04,-62.91 2397.2,-47.67 2440.43,-35.73"/>
<polygon fill="black" stroke="black" points="2441.33,-38.83 2450.02,-32.77 2439.45,-32.09 2441.33,-38.83"/>
<text text-anchor="middle" x="2390.8" y="-57.2" font-family="Times,serif" font-size="14.00">isWestOf</text>
</g>
<!-- idPlayerRightHand -->
<g id="node20" class="node">
<title>idPlayerRightHand</title>
<ellipse fill="none" stroke="black" cx="2674.3" cy="-18" rx="82.06" ry="18"/>
<text text-anchor="middle" x="2674.3" y="-12.95" font-family="Times,serif" font-size="14.00">idPlayerRightHand</text>
</g>
<!-- idRockPile1&#45;&gt;idPlayerRightHand -->
<g id="edge20" class="edge">
<title>idRockPile1&#45;&gt;idPlayerRightHand</title>
<path fill="none" stroke="black" d="M1495.86,-104.7C1676.68,-101.97 2239.42,-91.92 2420.3,-70.5 2486.21,-62.7 2560.49,-46.79 2611.62,-34.7"/>
<polygon fill="black" stroke="black" points="2612.25,-37.91 2621.16,-32.19 2610.63,-31.1 2612.25,-37.91"/>
<text text-anchor="middle" x="2544.8" y="-57.2" font-family="Times,serif" font-size="14.00">isWestOf</text>
</g>
</g>
</svg>
