<?xml version="1.0" encoding="UTF-8" standalone="no"?>
<!DOCTYPE svg PUBLIC "-//W3C//DTD SVG 1.1//EN"
 "http://www.w3.org/Graphics/SVG/1.1/DTD/svg11.dtd">
<!-- Generated by graphviz version 8.1.0 (20230707.0739)
 -->
<!-- Pages: 1 -->
<svg width="2213pt" height="133pt"
 viewBox="0.00 0.00 2212.96 132.50" xmlns="http://www.w3.org/2000/svg" xmlns:xlink="http://www.w3.org/1999/xlink">
<g id="graph0" class="graph" transform="scale(1 1) rotate(0) translate(4 128.5)">
<polygon fill="white" stroke="none" points="-4,4 -4,-128.5 2208.96,-128.5 2208.96,4 -4,4"/>
<!-- idRockyArea1 -->
<g id="node1" class="node">
<title>idRockyArea1</title>
<ellipse fill="none" stroke="black" cx="1081.9" cy="-106.5" rx="64.66" ry="18"/>
<text text-anchor="middle" x="1081.9" y="-101.45" font-family="Times,serif" font-size="14.00">idRockyArea1</text>
</g>
<!-- idRockyArea1&#45;&gt;idRockyArea1 -->
<g id="edge8" class="edge">
<title>idRockyArea1&#45;&gt;idRockyArea1</title>
<path fill="none" stroke="black" d="M1140.22,-114.65C1154.2,-114.01 1164.56,-111.3 1164.56,-106.5 1164.56,-103.05 1159.21,-100.68 1151.01,-99.38"/>
<polygon fill="black" stroke="black" points="1151.51,-95.82 1141.22,-98.35 1150.84,-102.79 1151.51,-95.82"/>
<text text-anchor="middle" x="1182.19" y="-101.45" font-family="Times,serif" font-size="14.00">isNear</text>
</g>
<!-- rocky -->
<g id="node2" class="node">
<title>rocky</title>
<ellipse fill="none" stroke="black" cx="31.9" cy="-18" rx="31.9" ry="18"/>
<text text-anchor="middle" x="31.9" y="-12.95" font-family="Times,serif" font-size="14.00">rocky</text>
</g>
<!-- idRockyArea1&#45;&gt;rocky -->
<g id="edge1" class="edge">
<title>idRockyArea1&#45;&gt;rocky</title>
<path fill="none" stroke="black" d="M1016.99,-105.8C809.96,-106.4 173.85,-105.34 88.4,-70.5 74.05,-64.65 61.03,-53.42 51.12,-42.93"/>
<polygon fill="black" stroke="black" points="54.14,-40.94 44.87,-35.8 48.92,-45.6 54.14,-40.94"/>
<text text-anchor="middle" x="181.15" y="-57.2" font-family="Times,serif" font-size="14.00">idRockyArea1_prop_idDescriptor</text>
</g>
<!-- rocky corner -->
<g id="node3" class="node">
<title>rocky corner</title>
<ellipse fill="none" stroke="black" cx="239.9" cy="-18" rx="58" ry="18"/>
<text text-anchor="middle" x="239.9" y="-12.95" font-family="Times,serif" font-size="14.00">rocky corner</text>
</g>
<!-- idRockyArea1&#45;&gt;rocky corner -->
<g id="edge2" class="edge">
<title>idRockyArea1&#45;&gt;rocky corner</title>
<path fill="none" stroke="black" d="M1016.99,-104.91C842,-102.98 369.17,-95.49 303.4,-70.5 288.03,-64.66 273.56,-53.55 262.33,-43.15"/>
<polygon fill="black" stroke="black" points="265.37,-41.24 255.76,-36.78 260.49,-46.26 265.37,-41.24"/>
<text text-anchor="middle" x="405.15" y="-57.2" font-family="Times,serif" font-size="14.00">idRockyArea1_prop_idDisplayName</text>
</g>
<!-- idRockPile1 -->
<g id="node4" class="node">
<title>idRockPile1</title>
<ellipse fill="none" stroke="black" cx="386.9" cy="-18" rx="56.47" ry="18"/>
<text text-anchor="middle" x="386.9" y="-12.95" font-family="Times,serif" font-size="14.00">idRockPile1</text>
</g>
<!-- idRockyArea1&#45;&gt;idRockPile1 -->
<g id="edge3" class="edge">
<title>idRockyArea1&#45;&gt;idRockPile1</title>
<path fill="none" stroke="black" d="M1017.37,-104.64C922.43,-102.53 739.81,-95.31 586.65,-70.5 534.57,-62.06 476.27,-46.28 436.17,-34.4"/>
<polygon fill="black" stroke="black" points="437.45,-30.83 426.87,-31.32 435.44,-37.54 437.45,-30.83"/>
<text text-anchor="middle" x="604.53" y="-57.2" font-family="Times,serif" font-size="14.00">isNear</text>
</g>
<!-- idPebble1 -->
<g id="node5" class="node">
<title>idPebble1</title>
<ellipse fill="none" stroke="black" cx="508.9" cy="-18" rx="47.77" ry="18"/>
<text text-anchor="middle" x="508.9" y="-12.95" font-family="Times,serif" font-size="14.00">idPebble1</text>
</g>
<!-- idRockyArea1&#45;&gt;idPebble1 -->
<g id="edge4" class="edge">
<title>idRockyArea1&#45;&gt;idPebble1</title>
<path fill="none" stroke="black" d="M1018.25,-102.81C942.05,-98.87 810.78,-89.79 699.65,-70.5 649.14,-61.73 592.6,-45.65 554.28,-33.78"/>
<polygon fill="black" stroke="black" points="555.56,-30.2 544.97,-30.56 553.47,-36.88 555.56,-30.2"/>
<text text-anchor="middle" x="717.53" y="-57.2" font-family="Times,serif" font-size="14.00">isNear</text>
</g>
<!-- idTheTrees1 -->
<g id="node6" class="node">
<title>idTheTrees1</title>
<ellipse fill="none" stroke="black" cx="631.9" cy="-18" rx="57.49" ry="18"/>
<text text-anchor="middle" x="631.9" y="-12.95" font-family="Times,serif" font-size="14.00">idTheTrees1</text>
</g>
<!-- idRockyArea1&#45;&gt;idTheTrees1 -->
<g id="edge5" class="edge">
<title>idRockyArea1&#45;&gt;idTheTrees1</title>
<path fill="none" stroke="black" d="M1019.77,-101C962.03,-96.07 873.87,-86.63 798.65,-70.5 757.35,-61.64 711.58,-47.16 678.46,-35.8"/>
<polygon fill="black" stroke="black" points="679.76,-32.21 669.17,-32.24 677.47,-38.82 679.76,-32.21"/>
<text text-anchor="middle" x="827.03" y="-57.2" font-family="Times,serif" font-size="14.00">isInsideOf</text>
</g>
<!-- idBottle1 -->
<g id="node7" class="node">
<title>idBottle1</title>
<ellipse fill="none" stroke="black" cx="752.9" cy="-18" rx="45.21" ry="18"/>
<text text-anchor="middle" x="752.9" y="-12.95" font-family="Times,serif" font-size="14.00">idBottle1</text>
</g>
<!-- idRockyArea1&#45;&gt;idBottle1 -->
<g id="edge6" class="edge">
<title>idRockyArea1&#45;&gt;idBottle1</title>
<path fill="none" stroke="black" d="M1028.31,-96.17C994.37,-89.86 949.67,-80.82 910.65,-70.5 871.24,-60.08 827.2,-45.44 795.69,-34.43"/>
<polygon fill="black" stroke="black" points="797.11,-30.87 786.51,-30.85 794.78,-37.47 797.11,-30.87"/>
<text text-anchor="middle" x="928.53" y="-57.2" font-family="Times,serif" font-size="14.00">isNear</text>
</g>
<!-- idClearing1 -->
<g id="node8" class="node">
<title>idClearing1</title>
<ellipse fill="none" stroke="black" cx="870.9" cy="-18" rx="54.42" ry="18"/>
<text text-anchor="middle" x="870.9" y="-12.95" font-family="Times,serif" font-size="14.00">idClearing1</text>
</g>
<!-- idRockyArea1&#45;&gt;idClearing1 -->
<g id="edge7" class="edge">
<title>idRockyArea1&#45;&gt;idClearing1</title>
<path fill="none" stroke="black" d="M1043.72,-91.64C1026.84,-85.38 1006.8,-77.77 988.9,-70.5 963.04,-60 934.33,-47.49 911.71,-37.43"/>
<polygon fill="black" stroke="black" points="913.33,-33.87 902.77,-32.99 910.48,-40.26 913.33,-33.87"/>
<text text-anchor="middle" x="1014.4" y="-57.2" font-family="Times,serif" font-size="14.00">isWestOf</text>
</g>
<!-- idGlowingArea1 -->
<g id="node9" class="node">
<title>idGlowingArea1</title>
<ellipse fill="none" stroke="black" cx="1015.9" cy="-18" rx="72.85" ry="18"/>
<text text-anchor="middle" x="1015.9" y="-12.95" font-family="Times,serif" font-size="14.00">idGlowingArea1</text>
</g>
<!-- idRockyArea1&#45;&gt;idGlowingArea1 -->
<g id="edge9" class="edge">
<title>idRockyArea1&#45;&gt;idGlowingArea1</title>
<path fill="none" stroke="black" d="M1068.86,-88.41C1059.28,-75.85 1046.1,-58.58 1035.29,-44.41"/>
<polygon fill="black" stroke="black" points="1037.76,-42.88 1028.92,-37.05 1032.2,-47.13 1037.76,-42.88"/>
<text text-anchor="middle" x="1080.4" y="-57.2" font-family="Times,serif" font-size="14.00">isWestOf</text>
</g>
<!-- idPlayer -->
<g id="node10" class="node">
<title>idPlayer</title>
<ellipse fill="none" stroke="black" cx="1147.9" cy="-18" rx="41.63" ry="18"/>
<text text-anchor="middle" x="1147.9" y="-12.95" font-family="Times,serif" font-size="14.00">idPlayer</text>
</g>
<!-- idRockyArea1&#45;&gt;idPlayer -->
<g id="edge10" class="edge">
<title>idRockyArea1&#45;&gt;idPlayer</title>
<path fill="none" stroke="black" d="M1095.71,-88.52C1100.28,-82.83 1105.35,-76.42 1109.9,-70.5 1116.47,-61.96 1123.51,-52.5 1129.72,-44.05"/>
<polygon fill="black" stroke="black" points="1133,-46.49 1136.08,-36.36 1127.35,-42.36 1133,-46.49"/>
<text text-anchor="middle" x="1147.4" y="-57.2" font-family="Times,serif" font-size="14.00">isWestOf</text>
</g>
<!-- idGrass1 -->
<g id="node11" class="node">
<title>idGrass1</title>
<ellipse fill="none" stroke="black" cx="1250.9" cy="-18" rx="43.67" ry="18"/>
<text text-anchor="middle" x="1250.9" y="-12.95" font-family="Times,serif" font-size="14.00">idGrass1</text>
</g>
<!-- idRockyArea1&#45;&gt;idGrass1 -->
<g id="edge11" class="edge">
<title>idRockyArea1&#45;&gt;idGrass1</title>
<path fill="none" stroke="black" d="M1124.04,-92.57C1140.89,-86.73 1160.23,-79.19 1176.9,-70.5 1192.92,-62.15 1209.53,-50.87 1222.94,-40.99"/>
<polygon fill="black" stroke="black" points="1224.78,-43.24 1230.67,-34.43 1220.58,-37.64 1224.78,-43.24"/>
<text text-anchor="middle" x="1228.4" y="-57.2" font-family="Times,serif" font-size="14.00">isWestOf</text>
</g>
<!-- idBranch1 -->
<g id="node12" class="node">
<title>idBranch1</title>
<ellipse fill="none" stroke="black" cx="1361.9" cy="-18" rx="49.3" ry="18"/>
<text text-anchor="middle" x="1361.9" y="-12.95" font-family="Times,serif" font-size="14.00">idBranch1</text>
</g>
<!-- idRockyArea1&#45;&gt;idBranch1 -->
<g id="edge12" class="edge">
<title>idRockyArea1&#45;&gt;idBranch1</title>
<path fill="none" stroke="black" d="M1139.58,-97.96C1174.43,-92.44 1219.41,-83.6 1257.9,-70.5 1281.89,-62.34 1307.4,-49.77 1327.16,-39.09"/>
<polygon fill="black" stroke="black" points="1328.57,-41.76 1335.64,-33.87 1325.2,-35.62 1328.57,-41.76"/>
<text text-anchor="middle" x="1322.4" y="-57.2" font-family="Times,serif" font-size="14.00">isWestOf</text>
</g>
<!-- idGlowingGrass1 -->
<g id="node13" class="node">
<title>idGlowingGrass1</title>
<ellipse fill="none" stroke="black" cx="1504.9" cy="-18" rx="75.92" ry="18"/>
<text text-anchor="middle" x="1504.9" y="-12.95" font-family="Times,serif" font-size="14.00">idGlowingGrass1</text>
</g>
<!-- idRockyArea1&#45;&gt;idGlowingGrass1 -->
<g id="edge13" class="edge">
<title>idRockyArea1&#45;&gt;idGlowingGrass1</title>
<path fill="none" stroke="black" d="M1143.9,-100.94C1199.03,-96.06 1281.55,-86.74 1351.9,-70.5 1387.81,-62.21 1427.2,-48.85 1457.02,-37.81"/>
<polygon fill="black" stroke="black" points="1458.01,-40.81 1466.14,-34.02 1455.55,-34.25 1458.01,-40.81"/>
<text text-anchor="middle" x="1433.4" y="-57.2" font-family="Times,serif" font-size="14.00">isWestOf</text>
</g>
<!-- idCave1 -->
<g id="node14" class="node">
<title>idCave1</title>
<ellipse fill="none" stroke="black" cx="1640.9" cy="-18" rx="41.63" ry="18"/>
<text text-anchor="middle" x="1640.9" y="-12.95" font-family="Times,serif" font-size="14.00">idCave1</text>
</g>
<!-- idRockyArea1&#45;&gt;idCave1 -->
<g id="edge14" class="edge">
<title>idRockyArea1&#45;&gt;idCave1</title>
<path fill="none" stroke="black" d="M1145.73,-103.02C1221.77,-99.3 1352.43,-90.42 1462.9,-70.5 1510.59,-61.9 1563.79,-45.59 1599.5,-33.62"/>
<polygon fill="black" stroke="black" points="1600.19,-36.74 1608.54,-30.22 1597.95,-30.11 1600.19,-36.74"/>
<text text-anchor="middle" x="1558.4" y="-57.2" font-family="Times,serif" font-size="14.00">isWestOf</text>
</g>
<!-- idPlayerBackside -->
<g id="node15" class="node">
<title>idPlayerBackside</title>
<ellipse fill="none" stroke="black" cx="1775.9" cy="-18" rx="75.41" ry="18"/>
<text text-anchor="middle" x="1775.9" y="-12.95" font-family="Times,serif" font-size="14.00">idPlayerBackside</text>
</g>
<!-- idRockyArea1&#45;&gt;idPlayerBackside -->
<g id="edge15" class="edge">
<title>idRockyArea1&#45;&gt;idPlayerBackside</title>
<path fill="none" stroke="black" d="M1146.69,-105.11C1243.41,-103.61 1430.99,-97.15 1587.9,-70.5 1634.41,-62.6 1686.01,-48.04 1723.37,-36.4"/>
<polygon fill="black" stroke="black" points="1724.02,-39.55 1732.51,-33.21 1721.92,-32.88 1724.02,-39.55"/>
<text text-anchor="middle" x="1687.4" y="-57.2" font-family="Times,serif" font-size="14.00">isWestOf</text>
</g>
<!-- idPlayerLeftHand -->
<g id="node16" class="node">
<title>idPlayerLeftHand</title>
<ellipse fill="none" stroke="black" cx="1945.9" cy="-18" rx="76.94" ry="18"/>
<text text-anchor="middle" x="1945.9" y="-12.95" font-family="Times,serif" font-size="14.00">idPlayerLeftHand</text>
</g>
<!-- idRockyArea1&#45;&gt;idPlayerLeftHand -->
<g id="edge16" class="edge">
<title>idRockyArea1&#45;&gt;idPlayerLeftHand</title>
<path fill="none" stroke="black" d="M1146.69,-105.47C1261.95,-104.63 1509.94,-99.27 1716.9,-70.5 1775.5,-62.35 1841.29,-46.88 1887.27,-35.01"/>
<polygon fill="black" stroke="black" points="1887.84,-38.22 1896.64,-32.31 1886.08,-31.45 1887.84,-38.22"/>
<text text-anchor="middle" x="1831.4" y="-57.2" font-family="Times,serif" font-size="14.00">isWestOf</text>
</g>
<!-- idPlayerRightHand -->
<g id="node17" class="node">
<title>idPlayerRightHand</title>
<ellipse fill="none" stroke="black" cx="2122.9" cy="-18" rx="82.06" ry="18"/>
<text text-anchor="middle" x="2122.9" y="-12.95" font-family="Times,serif" font-size="14.00">idPlayerRightHand</text>
</g>
<!-- idRockyArea1&#45;&gt;idPlayerRightHand -->
<g id="edge17" class="edge">
<title>idRockyArea1&#45;&gt;idPlayerRightHand</title>
<path fill="none" stroke="black" d="M1146.8,-105.85C1280.77,-105.84 1597.45,-102.13 1860.9,-70.5 1928.94,-62.33 2005.75,-46.43 2058.53,-34.44"/>
<polygon fill="black" stroke="black" points="2059.12,-37.67 2068.08,-32.02 2057.56,-30.85 2059.12,-37.67"/>
<text text-anchor="middle" x="1988.4" y="-57.2" font-family="Times,serif" font-size="14.00">isWestOf</text>
</g>
</g>
</svg>
